<?xml version="1.0" standalone="yes"?>
<svg xmlns="http://www.w3.org/2000/svg" width="974" height="900">
<path style="fill:none; stroke:#050505;" d="M242.329 62.0278C237.995 64.6552 235.75 71.7573 233.346 76C226.891 87.3927 220.01 98.5267 213.694 110C191.797 149.78 167.993 188.544 145.512 228C115.453 280.757 85.8805 334.151 54.3048 386C44.8989 401.445 36.154 417.315 27.1497 433C24.4663 437.674 17.2882 445.53 17.2886 451C17.2889 455.026 21.8164 459.592 23.6944 463C29.6466 473.802 36.0727 484.316 42.2253 495C64.3071 533.345 86.5656 571.603 108.579 610C140.147 665.064 171.274 720.492 203.799 775C213.081 790.555 221.605 806.551 231.061 822C234.222 827.165 236.822 835.539 241.529 839.397C243.891 841.332 247.14 840.994 250 841L269 841L345 841L594 841L663 841L681 841C684.186 841 688.038 841.52 690.957 839.972C695.591 837.514 697.511 831.283 700.012 827C706.424 816.017 712.819 805.029 719.15 794C742.51 753.303 765.565 712.386 789.446 672C821.209 618.284 851.153 563.527 883.2 510C891.691 495.817 899.762 481.334 908 467C910.381 462.857 917.128 455.027 916.565 450.08C916.275 447.535 913.998 445.119 912.73 442.985C909.583 437.687 906.519 432.329 903.424 427C892.404 408.022 880.897 389.218 870.312 370C830.414 297.563 787.57 226.635 746.225 155C733.148 132.342 720.261 109.56 707.011 87C703.899 81.7012 700.671 76.4217 697.78 71C696.028 67.7136 694.425 63.8674 690.957 62.0278C685.38 59.0697 675.185 61 669 61L617 61L427 61L293 61L257 61C252.778 61 246.079 59.7543 242.329 62.0278z"/>
<path style="fill:none; stroke:#050505;" d="M262.104 96.0278C257.945 98.3247 255.882 104.112 253.551 108C247.806 117.58 242.243 127.284 236.719 137C216.571 172.438 196.086 207.686 175.716 243C148.61 289.991 122.066 337.42 94.2654 384C84.9923 399.537 75.9403 415.217 67.091 431C63.9917 436.528 57.4988 443.723 56.5378 450C56.0221 453.368 58.2811 456.304 59.9506 459C62.7996 463.6 65.4642 468.304 68.1505 473C79.6119 493.037 90.9434 513.198 102.8 533C141.734 598.023 178.868 664.259 216.579 730C226.534 747.355 237.044 764.469 246.694 782C250.437 788.799 255.24 802.021 262.184 805.972C266.913 808.663 275.705 807 281 807L325 807L488 807L623 807L658 807C662.018 807 668.901 808.307 672.391 805.972C675.214 804.083 677.084 799.881 678.691 797C681.867 791.308 685.169 785.71 688.312 780C698.131 762.161 708.775 744.691 718.873 727C755.327 663.134 792.528 599.685 829.284 536C840.818 516.015 852.292 495.963 863.861 476C867.808 469.19 876.73 459.07 876.787 451C876.842 443.192 868.314 433.615 864.562 427C853.158 406.898 841.55 386.924 829.861 367C792.468 303.263 755.507 239.181 718.873 175C708.406 156.663 697.49 138.501 687.306 120C684.341 114.614 681.212 109.331 678.15 104C676.642 101.375 675.102 97.7272 672.471 96.0278C668.157 93.2405 658.973 95 654 95L609 95L438 95L312 95L277 95C272.595 95 266.089 93.8273 262.104 96.0278z"/>
</svg>
