<?xml version="1.0" standalone="yes"?>
<svg xmlns="http://www.w3.org/2000/svg" width="1623" height="1200">
<path style="fill:none; stroke:#1a1a1a;" d="M0 0L0 1200L1623 1200L1623 0L0 0z"/>
<path style="fill:none; stroke:#1a1a1a;" d="M1470 339C1438.73 392.514 1408.76 446.912 1376.73 500C1366.82 516.421 1357.12 533.047 1348.08 549.961C1344.47 556.722 1338.53 563.105 1338 571L1540 571L1588 571C1591.26 571 1601.85 572.721 1603.26 568.772C1604.61 564.985 1597.74 556.783 1595.83 553.561C1590.66 544.859 1586.35 535.654 1581.18 527.001C1578.28 522.149 1574.22 518.045 1571.66 512.999C1550.69 471.769 1525.23 432.591 1502.29 392.424C1495.76 380.986 1489.31 369.484 1482.55 358.17C1478.77 351.835 1474.64 345.963 1472 339L1470 339M141 344.424C116.011 347.746 94.7783 355.471 75.0039 371.449C64.4611 379.968 54.8957 390.788 48.554 402.729C39.4039 419.958 32.9121 438.244 32.0394 458C29.5997 513.227 68.2552 563.102 121 577.282C134.787 580.988 149.725 582.467 164 580.714C183.34 578.339 201.757 572.116 218 561.252C264.004 530.481 283.312 469.468 262.525 418C257.157 404.708 248.762 392.546 239.159 382.04C230.64 372.72 220.303 364.409 209 358.753C198.533 353.515 188.566 349.1 177 346.905C165.115 344.649 153.151 342.809 141 344.424M444 350.439C416.236 354.765 390.589 362.32 367 378.09C355.315 385.901 343.859 396.147 335.785 407.754C329.5 416.788 325.398 426.655 321.862 437C310.232 471.023 324.878 509.403 350.039 533.17C376.307 557.982 409.388 570.724 445 574.17C456.48 575.281 469.51 576.387 481 574.791C508.032 571.035 533.92 563.22 557 548.353C568.851 540.718 579.611 530.564 587.911 519.17C594.763 509.763 599.24 499.844 603.293 489C607.538 477.643 607.305 464.875 606.17 453C601.844 407.732 563.432 373.201 521.714 359.431C512.333 356.334 502.661 354.724 493 352.905C477.349 349.959 459.953 347.953 444 350.439M898 569L898 411L898 369C898 364.497 899.571 356.213 896.972 352.318C895.424 349.998 892.484 350.051 890 350.005C884.671 349.904 879.33 350 874 350L804 350L712 350L688 350C685.307 350 680.875 349.228 678.603 351.028C675.784 353.261 677 359.849 677 363L677 398L677 526L677 557C677 560.062 676.018 565.768 678.742 567.972C681.922 570.544 690.129 569 694 569L736 569L898 569z"/>
<path style="fill:none; stroke:#1a1a1a;" d="M141 353.424C126.113 355.38 111.388 359.284 98 366.4C65.2376 383.814 44.6268 418.698 41.1698 455C34.9934 519.858 96.3735 579.549 161 571.816C181.14 569.406 200.488 563.006 217 550.844C258.447 520.316 274.459 460.5 250.728 414.039C237.131 387.42 213.07 367.924 185 358.485C171.285 353.874 155.465 351.524 141 353.424z"/>
<path style="fill:none; stroke:#1a1a1a;" d="M976.603 354.028C974.64 355.583 975.016 358.791 975.001 361C974.955 367.666 975 374.334 975 381L975 460L975 540L975.001 559C975.014 561.462 974.572 565.216 976.742 566.972C980.212 569.779 989.743 568 994 568L1039 568L1218 568L1269 568C1273.59 568 1283.89 569.905 1287.4 566.397C1289.27 564.526 1288.98 561.418 1289 559C1289.04 553.001 1289 547 1289 541L1289 468L1289 385L1289 363C1289 360.531 1289.62 356.689 1287.97 354.603C1285.17 351.061 1274.09 353 1270 353L1219 353L1040 353L994 353C989.68 353 980.148 351.221 976.603 354.028z"/>
<path style="fill:none; stroke:#1a1a1a;" d="M448 359.424C427.262 362.155 406.718 366.313 388 376.169C348.988 396.711 317.55 436.845 329.756 483C332.04 491.635 335.956 499.984 340.63 507.576C346.956 517.853 355.685 526.934 365 534.536C399.896 563.016 448.632 569.956 492 563.791C509.173 561.349 526.61 554.753 542 546.916C585.327 524.852 609.778 475.202 591.077 429C587.178 419.367 580.445 410.184 573.576 402.465C552.01 378.23 519.817 367.082 489 361.537C475.801 359.162 461.408 357.659 448 359.424M686 359L686 509L686 546C686 549.418 684.714 556.522 687.742 558.972C690.773 561.424 698.324 560 702 560L740 560L889 560L889 413L889 375C889 371.269 890.423 363.698 887.972 360.603C885.632 357.649 878.316 359 875 359L838 359L686 359M1588 562C1587.02 552.412 1579.71 544.6 1575.04 536.536C1567.06 522.749 1559.46 508.708 1551.26 495.001C1524.39 450.084 1500.32 403.076 1472 359C1466.12 361.998 1463.4 368.413 1460.38 374C1456.06 382.004 1451.74 390.193 1446.93 397.911C1423.24 435.869 1401.79 475.366 1379.22 513.996C1372.39 525.691 1365.81 537.401 1358.91 549.089C1357.49 551.493 1351.67 558.29 1354.66 560.972C1357.58 563.594 1366.32 562 1370 562L1414 562L1588 562M984 363L984 507L984 544C984 547.478 982.698 554.379 985.028 557.258C987.988 560.917 998.776 559 1003 559L1056 559L1204 559L1251 559C1260.61 559 1270.52 559.76 1280 558L1280 415L1280 378C1280 374.469 1281.3 367.543 1278.97 364.603C1276.08 360.954 1264.23 363 1260 363L1206 363L984 363z"/>
<path style="fill:none; stroke:#1a1a1a;" d="M844 612C836.153 633.895 822.454 653.774 813.005 674.999C809.935 681.895 806.506 688.377 802.9 695C801.374 697.805 800.466 701.182 797.775 703.146C794.189 705.765 789.205 705.696 785 706.167C777.607 706.994 770.432 708.484 763 709.093C746.539 710.443 729.344 713.6 713 716.324C707.606 717.223 702.51 718.763 697 719C698.421 728.211 709.754 735.566 716.269 741.657C726.403 751.13 735.73 761.533 746 770.83C753.029 777.193 763.299 784.435 767.682 793C771.439 800.342 766.105 814.199 764.75 822C760.455 846.732 754.18 872 752 897L756 897C758.062 893.421 761.491 892.352 765 890.343C773.106 885.702 781.93 882.431 790 877.806C803.866 869.859 818.235 861.369 832.975 855.14C836.888 853.486 841.47 848.872 845.834 848.972C848.647 849.037 851.607 851.554 854.004 852.832C859.331 855.671 864.698 858.323 870 861.221C885.72 869.813 901.911 877.654 917.829 885.927C924.612 889.453 932.475 895.931 940 897C938.902 884.409 935.582 871.455 933.261 859C931.353 848.764 930.676 838.105 928.251 828C926.347 820.065 925.264 812.062 923.92 804C923.366 800.677 921.94 796.344 923.349 793.089C925.919 787.152 934.347 781.504 938.925 776.925C951.729 764.121 964.974 751.719 977.961 739.089C983.521 733.682 994.676 726.904 996 719C972.881 717.175 950.082 711.674 927 709.166C920.583 708.469 914.361 707.017 908 706.181C903.738 705.62 898.015 706.086 894.213 703.822C890.926 701.864 889.34 697.343 887.908 694C885.577 688.557 882.674 683.421 880.255 678.015C873.129 662.097 864.623 646.783 857.062 631C854.119 624.858 849.689 618.548 848 612L844 612M520 632.836C515.874 633.871 512.307 637.852 509 640.335C501.661 645.845 494.058 650.977 486.715 656.481C465.243 672.576 443.28 688.797 421 703.772C413.151 709.047 405.659 714.762 397.996 720.291C395.223 722.292 390.742 724.518 389.788 728.09C388.947 731.238 391.104 735.04 391.961 738C393.953 744.882 395.688 751.576 398.291 758.286C406.101 778.414 411.149 799.628 418.309 820C423.541 834.888 428.183 850 433.038 865C434.515 869.564 436.046 879.227 440.303 881.972C443.336 883.928 448.563 883 452 883L481 883L564 883L589 883C592.999 883 597.997 883.793 601.867 882.682C607.274 881.131 608.187 871.548 609.67 867C614.856 851.088 619.387 834.662 625.054 819C632.937 797.212 639.658 774.984 647 753C648.894 747.33 650.826 741.686 652.67 736C653.43 733.655 654.91 730.689 654.212 728.174C653.346 725.048 649.472 723.021 647 721.305C640.267 716.629 633.608 711.931 626.985 707.09C601.72 688.624 576.812 669.232 550.961 651.634C543.925 646.845 536.899 642.025 530 637.039C527.122 634.959 523.849 631.869 520 632.836z"/>
<path style="fill:none; stroke:#1a1a1a;" d="M844 632C837.023 651.468 824.482 668.752 817.001 687.985C814.747 693.779 811.702 699.433 808.917 704.996C807.634 707.559 806.372 710.779 803.66 712.142C798.406 714.782 789.825 714.565 784 715.427C768.641 717.701 753.331 719.996 738 722.41C730.99 723.514 718.449 721.859 716 730C723.808 734.034 729.85 741.85 736 748C745.506 757.506 755.486 766.497 765 776C769.056 780.051 778.117 786.003 778.812 792.039C779.604 798.914 776.565 808.135 775.414 815C771.923 835.804 765.175 857.887 765 879C771.415 878.148 776.233 873.633 782.004 870.995C797.594 863.871 812.135 854.679 827.579 847.358C832.758 844.903 840.348 839.103 845.996 838.772C851.225 838.466 858.281 844.822 863 846.95C877.973 853.702 892.463 862.427 907 870.12C913.135 873.366 920.027 878.227 927 879C924.353 858.052 920.982 836.72 916.714 816C915.544 810.319 914.647 804.745 913.83 799C913.394 795.927 912.132 792.998 913.607 790.015C916.286 784.598 922.788 780.211 927 776C938.179 764.825 949.827 754.173 961 743C965.87 738.13 973.96 732.693 976 726C957.736 721.498 937.731 719.262 919 717.167C911.205 716.295 903.645 715.554 896 713.745C893.447 713.141 890.446 713.158 888.133 711.822C882.404 708.511 879.401 696.688 876.566 691C870.263 678.356 864.145 665.523 857.637 653C854.041 646.08 849.786 639.692 848 632L844 632z"/>
<path style="fill:none; stroke:#1a1a1a;" d="M1430 635.028C1423.54 638.259 1418.06 645.941 1413 651C1401.38 662.618 1389.98 674.549 1378.04 685.83C1373.63 689.999 1369.43 694.375 1365.05 698.579C1362.5 701.028 1358.93 703.795 1357.6 707.17C1355.54 712.399 1357 720.437 1357 726L1357 767L1357 796C1357 800.372 1356.15 805.844 1357.74 810C1360.63 817.557 1370.13 824.098 1375.83 829.576C1387.82 841.085 1399.24 853.243 1411 865C1416.34 870.336 1422.73 879.746 1430 882.397C1435.43 884.376 1443.28 883 1449 883L1491 883L1521 883C1525.31 883 1531.04 883.961 1535 881.972C1540.69 879.118 1545.41 872.188 1550.04 867.829C1563.03 855.601 1575.38 842.602 1588 830C1593 825.008 1603.76 817.78 1605.68 810.83C1607.31 804.938 1606 797.095 1606 791L1606 750L1606 720C1606 715.886 1607.01 710.148 1605.4 706.286C1602.71 699.87 1593.87 693.87 1589 689C1576.33 676.333 1563.64 663.694 1551 651C1545.87 645.844 1539.3 636.444 1532 634.434C1526.25 632.853 1518.93 634 1513 634L1474 634L1444 634C1439.69 634 1433.97 633.043 1430 635.028M1089.33 636.028C1085.03 638.645 1083.15 645.816 1080.72 650C1073.54 662.357 1066.14 674.592 1059.21 687.09C1049.31 704.964 1038.21 722.085 1028.49 740.039C1025.37 745.804 1018.72 753.211 1018.49 759.996C1018.36 763.718 1021.38 767.04 1023.21 770.039C1027.26 776.711 1031.21 783.453 1035.19 790.171C1048.95 813.421 1061.2 837.793 1076 860.424C1078.84 864.772 1081.67 869.426 1084.06 874.039C1085.55 876.917 1086.81 881.071 1089.61 882.972C1094.28 886.139 1105.51 884 1111 884L1168 884L1215 884C1219.95 884 1229.18 885.769 1233.47 882.972C1236.11 881.245 1237.57 877.337 1239.18 874.714C1243.49 867.673 1247.67 860.519 1251.62 853.271C1263.47 831.498 1276.46 810.327 1289.01 789C1292.96 782.294 1296.91 775.925 1300.42 769C1302.05 765.786 1304.88 762.837 1304.67 759C1304.42 754.501 1300.99 750.436 1298.65 746.83C1295.89 742.595 1293.52 738.039 1291.14 733.579C1283.61 719.443 1274.87 705.852 1266.76 691.999C1261.18 682.468 1256.33 672.542 1250.27 663.286C1245.95 656.701 1242.51 649.421 1238.28 642.714C1236.93 640.56 1235.78 637.464 1233.58 636.028C1228.58 632.761 1216.83 635 1211 635L1154 635L1108 635C1102.87 635 1093.85 633.279 1089.33 636.028z"/>
<path style="fill:none; stroke:#1a1a1a;" d="M519.5 643.858C510.775 647.597 502.813 656.235 495 661.62C473.731 676.28 453.536 692.606 432.039 706.946C424.144 712.213 416.651 718.018 409 723.626C406.24 725.649 401.87 727.7 400.622 731.104C398.863 735.903 403.13 744.386 404.667 749C409.334 763.014 414.194 776.908 418.62 790.999C424.696 810.339 430.919 829.758 437.333 849C439.116 854.347 440.889 859.692 442.782 865C443.612 867.324 444.088 870.565 445.854 872.397C448.201 874.83 452.954 874 456 874L481 874L562 874L585 874C588.347 874 592.734 874.707 595.891 873.397C599.433 871.926 599.708 868.263 600.502 865C601.994 858.874 604.378 852.898 606.576 847C612.688 830.597 617.141 813.597 622.674 797C626.638 785.11 631.952 773.198 634.793 761C636.448 753.896 639.113 746.896 641.495 740C642.429 737.298 644.506 733.309 642.93 730.529C639.548 724.562 629.56 720.154 624.17 716.184C608.566 704.688 592.61 693.541 577 681.975C563.193 671.745 549.064 661.758 535.075 651.786C531.461 649.21 524.294 641.804 519.5 643.858M1433.42 644.028C1427.63 647.36 1422.74 654.308 1418 658.985C1406.61 670.235 1395.4 681.677 1384 692.921C1378.64 698.212 1368.77 704.579 1366.51 712.04C1364.88 717.419 1366 724.421 1366 730L1366 767L1366 793C1366 797.09 1365.26 802.109 1366.74 806C1369.26 812.589 1377.12 818.123 1382 823L1417 858C1421.54 862.535 1427.83 871.926 1434.17 873.682C1439.49 875.157 1446.5 874 1452 874L1490 874L1518 874C1522.57 874 1527.93 874.772 1532 872.258C1538.03 868.53 1543.01 861.988 1548 857L1579 826C1584.67 820.333 1594.34 813.631 1597.26 806C1599.24 800.804 1598 793.486 1598 788L1598 750L1598 724C1598 720.155 1598.91 714.9 1597.4 711.286C1594.73 704.894 1585.86 698.64 1580.91 693.83C1569.45 682.696 1558.4 671.145 1546.99 659.961C1541.85 654.925 1535.89 646.142 1529 643.603C1523.85 641.705 1516.43 643 1511 643L1474 643L1446 643C1442.2 643 1436.85 642.057 1433.42 644.028M1230 874C1232.16 866.251 1238.25 859.154 1241.98 852C1249.34 837.857 1257.95 824.444 1266.06 810.714C1269.42 805.017 1271.95 798.87 1275.46 793.246C1280.01 785.977 1283.93 778.372 1288.44 771.089C1290.52 767.719 1294.28 764.125 1294.59 760C1295.02 754.383 1287.97 746.594 1285.13 741.911C1276.44 727.571 1267.49 712.779 1259.67 697.961C1253.18 685.676 1245.42 674.123 1238.67 662C1235.94 657.102 1233.72 649.212 1228.67 646.179C1224.38 643.601 1216.82 645 1212 645L1174 645L1120 645C1113.06 645 1102.55 643.032 1096.05 645.603C1092.56 646.985 1090.81 650.943 1089.05 654L1078.5 672C1065.97 693.664 1052.25 714.773 1040.74 737C1038.15 742.013 1035.2 746.976 1032.32 751.83C1031 754.046 1028.86 756.296 1028.78 759.015C1028.68 762.298 1031.53 765.291 1033.05 768C1036.7 774.484 1040.23 780.746 1044.26 787.001C1057.35 807.262 1068.16 829.312 1080.65 850.004C1084.93 857.086 1089.52 873.105 1099 873.941C1113.43 875.215 1128.51 874 1143 874L1230 874z"/>
<path style="fill:none; stroke:#1a1a1a;" d="M6 875L366 875C365.236 862.985 358.645 851.457 355.549 839.961C345.062 801.01 330.918 762.995 320.475 724C316.968 710.908 312.796 698.011 308.999 685C307.79 680.855 306.357 672.737 302.57 670.179C300.199 668.577 296.709 669.005 294 669L276 669L207 669L107 669L81 669C77.93 669 73.173 668.158 70.51 670.028C67.2667 672.305 65.9476 679.41 64.6952 683C60.4642 695.129 57.3965 707.71 53.6705 720C42.3265 757.417 29.6385 794.394 18.8588 832C16.373 840.672 13.8459 849.421 11.1682 858C9.36882 863.765 6.18155 868.875 6 875z"/>
<path style="fill:none; stroke:#1a1a1a;" d="M77.419 679.028C74.4776 680.982 73.7074 685.875 72.6667 689C69.587 698.246 66.8188 707.679 64.0031 717C53.323 752.355 43.1621 787.968 31.4846 823C28.0542 833.291 25.1008 843.686 21.6667 854C20.7522 856.747 17.7189 862.577 20.6181 864.972C24.0387 867.798 33.7723 866 38 866L87 866L278 866L332 866C336.603 866 347.684 868.027 351.382 864.972C353.444 863.268 352.283 860.102 351.651 858C349.749 851.673 347.934 845.338 346.075 839C338.149 811.979 329.796 784.802 321.093 758.001C314.981 739.181 309.251 719.979 303.619 701C301.932 695.314 301.237 682.862 296.273 679.028C293.29 676.724 286.555 678 283 678L247 678L123 678L91 678C87.1643 678 80.7652 676.805 77.419 679.028z"/>
</svg>
