<?xml version="1.0" standalone="yes"?>
<svg xmlns="http://www.w3.org/2000/svg" width="790" height="865">
<path style="fill:#fdfdfd; stroke:none;" d="M0 0L0 865L790 865L790 0L0 0z"/>
<path style="fill:#1a1a1a; stroke:none;" d="M364 56L364 61L342 61L342 74L409 74L409 79L427 79L427 83L436 83L436 88L445 88L445 92L454 92L454 97L459 97L459 101L463 101L463 106L468 106L468 110L472 110L472 115L477 115L477 119L481 119L481 128L486 128L486 137L490 137L490 151L495 151L495 169L499 169L499 182L495 182L495 205L490 205L490 214L486 214L486 218L481 218L481 223L477 223L477 227L472 227L472 232L468 232L468 236L463 236L463 241L459 241L459 245L450 245L450 250L441 250L441 254L432 254L432 259L418 259L418 263L396 263L396 268L315 268L315 263L297 263L297 259L283 259L283 254L274 254L274 250L265 250L265 245L261 245L261 241L256 241L256 236L252 236L252 232L247 232L247 227L243 227L243 223L238 223L238 218L234 218L234 205L229 205L229 164L234 164L234 155L238 155L238 146L243 146L243 142L247 142L247 137L252 137L252 133L256 133L256 128L261 128L261 124L270 124L270 119L274 119L274 115L283 115L283 110L292 110L292 106L306 106L306 101L319 101L319 97L337 97L337 92L378 92L378 88L382 88L382 79L333 79L333 83L315 83L315 88L301 88L301 92L288 92L288 97L279 97L279 101L270 101L270 106L265 106L265 110L256 110L256 115L252 115L252 119L247 119L247 124L243 124L243 128L238 128L238 133L234 133L234 137L229 137L229 142L225 142L225 151L220 151L220 160L216 160L216 173L211 173L211 196L216 196L216 214L220 214L220 223L225 223L225 232L229 232L229 236L234 236L234 241L238 241L238 245L243 245L243 250L247 250L247 254L256 254L256 259L261 259L261 263L270 263L270 268L283 268L283 272L292 272L292 277L310 277L310 281L355 281L355 286L360 286L360 281L369 281L369 286L373 286L373 290L378 290L378 295L373 295L373 304L369 304L369 308L364 308L364 317L360 317L360 322L355 322L355 326L351 326L351 331L346 331L346 335L337 335L337 340L333 340L333 344L328 344L328 349L324 349L324 353L315 353L315 358L310 358L310 362L301 362L301 367L292 367L292 371L288 371L288 376L279 376L279 380L270 380L270 385L261 385L261 389L247 389L247 394L238 394L238 398L225 398L225 403L207 403L207 407L184 407L184 389L180 389L180 380L175 380L175 371L171 371L171 362L166 362L166 358L162 358L162 353L157 353L157 349L148 349L148 344L130 344L130 353L126 353L126 380L121 380L121 376L103 376L103 371L90 371L90 367L81 367L81 362L58 362L58 367L54 367L54 403L58 403L58 412L63 412L63 416L67 416L67 421L72 421L72 425L81 425L81 430L90 430L90 434L103 434L103 439L153 439L153 434L166 434L166 430L175 430L175 425L180 425L180 421L207 421L207 416L225 416L225 412L243 412L243 407L252 407L252 403L265 403L265 398L274 398L274 394L283 394L283 389L292 389L292 385L301 385L301 380L306 380L306 376L315 376L315 371L324 371L324 367L328 367L328 362L337 362L337 358L342 358L342 353L346 353L346 349L351 349L351 344L355 344L355 340L360 340L360 335L364 335L364 331L369 331L369 326L373 326L373 322L378 322L378 317L382 317L382 313L387 313L387 322L391 322L391 340L396 340L396 371L400 371L400 430L396 430L396 466L391 466L391 488L387 488L387 506L382 506L382 520L378 520L378 538L373 538L373 560L369 560L369 574L364 574L364 592L360 592L360 605L355 605L355 614L351 614L351 628L346 628L346 637L342 637L342 650L337 650L337 659L333 659L333 668L328 668L328 677L324 677L324 682L319 682L319 691L315 691L315 700L310 700L310 704L306 704L306 713L301 713L301 722L297 722L297 727L292 727L292 731L288 731L288 740L283 740L283 745L279 745L279 749L274 749L274 754L270 754L270 758L265 758L265 767L261 767L261 772L256 772L256 781L274 781L274 776L288 776L288 772L301 772L301 767L319 767L319 763L369 763L369 767L378 767L378 776L382 776L382 790L378 790L378 794L373 794L373 790L342 790L342 785L256 785L256 790L243 790L243 803L265 803L265 799L337 799L337 803L369 803L369 808L391 808L391 799L396 799L396 767L391 767L391 763L387 763L387 758L382 758L382 754L373 754L373 749L315 749L315 754L297 754L297 758L292 758L292 749L297 749L297 745L301 745L301 740L306 740L306 731L310 731L310 727L315 727L315 718L319 718L319 713L324 713L324 704L328 704L328 700L333 700L333 691L337 691L337 682L342 682L342 673L346 673L346 664L351 664L351 655L355 655L355 646L360 646L360 632L364 632L364 623L369 623L369 610L373 610L373 596L378 596L378 578L382 578L382 565L387 565L387 547L391 547L391 551L396 551L396 560L400 560L400 569L405 569L405 578L409 578L409 587L414 587L414 601L418 601L418 610L423 610L423 623L427 623L427 637L432 637L432 650L436 650L436 668L441 668L441 695L445 695L445 745L441 745L441 772L436 772L436 785L450 785L450 781L463 781L463 776L472 776L472 772L490 772L490 767L535 767L535 772L549 772L549 776L553 776L553 781L562 781L562 790L567 790L567 794L531 794L531 790L450 790L450 794L432 794L432 808L459 808L459 803L522 803L522 808L558 808L558 812L585 812L585 794L580 794L580 785L576 785L576 776L571 776L571 772L567 772L567 767L562 767L562 763L553 763L553 758L540 758L540 754L486 754L486 758L468 758L468 763L454 763L454 754L459 754L459 691L454 691L454 664L450 664L450 646L445 646L445 632L441 632L441 619L436 619L436 605L432 605L432 596L427 596L427 583L423 583L423 574L418 574L418 565L414 565L414 556L409 556L409 547L405 547L405 538L400 538L400 529L396 529L396 511L400 511L400 493L405 493L405 470L409 470L409 439L414 439L414 367L409 367L409 335L405 335L405 317L400 317L400 313L409 313L409 317L418 317L418 322L423 322L423 326L436 326L436 331L445 331L445 335L459 335L459 340L477 340L477 344L495 344L495 349L531 349L531 353L594 353L594 349L612 349L612 344L621 344L621 349L630 349L630 353L643 353L643 358L697 358L697 353L711 353L711 349L720 349L720 344L724 344L724 340L729 340L729 335L733 335L733 331L738 331L738 322L742 322L742 308L747 308L747 295L742 295L742 286L738 286L738 281L720 281L720 286L706 286L706 290L693 290L693 295L679 295L679 299L670 299L670 272L666 272L666 268L661 268L661 263L648 263L648 268L643 268L643 272L634 272L634 277L630 277L630 286L625 286L625 290L621 290L621 299L616 299L616 313L612 313L612 335L585 335L585 340L540 340L540 335L504 335L504 331L481 331L481 326L468 326L468 322L454 322L454 317L441 317L441 313L427 313L427 308L423 308L423 304L414 304L414 299L405 299L405 295L400 295L400 290L396 290L396 286L391 286L391 281L405 281L405 277L418 277L418 272L436 272L436 268L445 268L445 263L454 263L454 259L463 259L463 254L468 254L468 250L477 250L477 245L481 245L481 241L486 241L486 236L490 236L490 232L495 232L495 223L499 223L499 214L504 214L504 205L508 205L508 191L513 191L513 164L508 164L508 142L504 142L504 133L499 133L499 124L495 124L495 115L490 115L490 106L486 106L486 101L481 101L481 97L477 97L477 92L472 92L472 88L468 88L468 83L459 83L459 79L454 79L454 74L445 74L445 70L432 70L432 65L418 65L418 61L387 61L387 56L364 56M369 128L369 137L373 137L373 151L387 151L387 133L382 133L382 128L369 128M328 133L328 137L324 137L324 151L328 151L328 155L337 155L337 142L342 142L342 137L337 137L337 133L328 133M445 160L445 164L441 164L441 178L436 178L436 187L432 187L432 196L427 196L427 200L423 200L423 205L414 205L414 209L409 209L409 214L396 214L396 218L378 218L378 223L342 223L342 218L324 218L324 214L310 214L310 209L301 209L301 205L292 205L292 200L288 200L288 196L283 196L283 191L279 191L279 187L274 187L274 182L270 182L270 173L256 173L256 187L261 187L261 196L265 196L265 200L270 200L270 205L274 205L274 209L283 209L283 214L288 214L288 218L297 218L297 223L306 223L306 227L315 227L315 232L337 232L337 236L387 236L387 232L400 232L400 227L414 227L414 223L423 223L423 218L427 218L427 214L432 214L432 209L436 209L436 205L441 205L441 200L445 200L445 191L450 191L450 187L454 187L454 160L445 160z"/>
<path style="fill:#fdfdfd; stroke:none;" d="M652 277L652 281L648 281L648 286L643 286L643 290L639 290L639 295L634 295L634 304L630 304L630 313L625 313L625 331L630 331L630 335L634 335L634 340L648 340L648 344L693 344L693 340L702 340L702 335L711 335L711 331L720 331L720 322L724 322L724 317L729 317L729 295L724 295L724 299L711 299L711 304L697 304L697 308L684 308L684 313L661 313L661 308L657 308L657 304L652 304L652 295L657 295L657 277L652 277M139 358L139 371L144 371L144 385L139 385L139 389L130 389L130 394L117 394L117 389L99 389L99 385L85 385L85 380L76 380L76 376L67 376L67 398L72 398L72 403L76 403L76 407L81 407L81 412L85 412L85 416L94 416L94 421L108 421L108 425L144 425L144 421L162 421L162 416L166 416L166 412L171 412L171 394L166 394L166 385L162 385L162 376L157 376L157 371L153 371L153 367L148 367L148 362L144 362L144 358L139 358z"/>
</svg>
