<?xml version="1.0" encoding="UTF-8"?>
<!DOCTYPE svg PUBLIC "-//W3C//DTD SVG 1.1//EN" "http://www.w3.org/Graphics/SVG/1.1/DTD/svg11.dtd">
<svg xmlns="http://www.w3.org/2000/svg" version="1.1" width="612px" height="612px" style="shape-rendering:geometricPrecision; text-rendering:geometricPrecision; image-rendering:optimizeQuality; fill-rule:evenodd; clip-rule:evenodd" xmlns:xlink="http://www.w3.org/1999/xlink">
<g><path style="opacity:1" fill="#fcfcfc" d="M -0.5,-0.5 C 203.5,-0.5 407.5,-0.5 611.5,-0.5C 611.5,203.5 611.5,407.5 611.5,611.5C 407.5,611.5 203.5,611.5 -0.5,611.5C -0.5,407.5 -0.5,203.5 -0.5,-0.5 Z"/></g>
<g><path style="opacity:1" fill="#f5f5f5" d="M 78.5,17.5 C 78.5,17.1667 78.5,16.8333 78.5,16.5C 89.3418,14.6167 98.8418,17.2834 107,24.5C 116.435,41.1853 111.935,52.352 93.5,58C 85.8984,59.5228 78.2318,59.8561 70.5,59C 56.9719,56.745 51.1385,48.9117 53,35.5C 61.1014,24.8679 71.9347,19.7013 85.5,20C 85.9574,19.586 86.2907,19.086 86.5,18.5C 83.9135,17.52 81.2469,17.1866 78.5,17.5 Z"/></g>
<g><path style="opacity:1" fill="#eaeaea" d="M 528.5,17.5 C 534.808,19.1738 541.475,20.3405 548.5,21C 551.071,21.9009 553.404,23.2342 555.5,25C 552.368,26.6349 549.368,28.4682 546.5,30.5C 542.701,27.872 538.868,27.872 535,30.5C 533.991,32.0249 533.491,33.6916 533.5,35.5C 530.693,33.5797 527.526,32.2464 524,31.5C 508.062,35.5356 507.562,33.7023 522.5,26C 527,24.2079 531.667,23.3746 536.5,23.5C 536.5,22.5 536.5,21.5 536.5,20.5C 533.14,20.6159 529.807,20.9492 526.5,21.5C 526.989,20.0048 527.655,18.6715 528.5,17.5 Z"/></g>
<g><path style="opacity:1" fill="#181818" d="M 397.5,15.5 C 410.093,13.5078 420.926,16.8412 430,25.5C 437.893,36.7758 437.06,47.2758 427.5,57C 422.236,60.3676 416.569,62.8676 410.5,64.5C 417.492,66.9964 424.158,70.1631 430.5,74C 435.166,78.0056 435.666,82.5056 432,87.5C 428.849,90.407 425.516,93.0736 422,95.5C 421.241,107.418 415.075,114.418 403.5,116.5C 406.492,134.142 411.492,151.142 418.5,167.5C 428.511,161.608 438.011,162.274 447,169.5C 448.411,171.65 449.245,173.984 449.5,176.5C 438.181,175.778 426.848,175.445 415.5,175.5C 415.5,174.5 415.5,173.5 415.5,172.5C 419.673,172.309 423.84,171.976 428,171.5C 433.878,172.155 439.712,172.655 445.5,173C 442.54,168.28 438.207,166.113 432.5,166.5C 426.753,167.543 421.086,168.877 415.5,170.5C 410.166,155.664 405.332,140.664 401,125.5C 396.587,140.571 391.087,155.238 384.5,169.5C 383.667,169.833 382.833,170.167 382,170.5C 376.943,168.154 371.609,166.821 366,166.5C 361.207,166.311 357.707,168.311 355.5,172.5C 355.833,172.833 356.167,173.167 356.5,173.5C 363.726,171.652 371.059,171.152 378.5,172C 380.941,172.036 382.941,172.869 384.5,174.5C 373.508,175.38 362.508,176.046 351.5,176.5C 351.609,169.879 354.942,165.713 361.5,164C 368.511,163.169 375.178,164.336 381.5,167.5C 389.881,151.357 395.881,134.357 399.5,116.5C 398.065,115.071 397.065,113.405 396.5,111.5C 401.475,107.442 403.142,102.276 401.5,96C 404.216,86.205 404.049,76.3717 401,66.5C 395.78,75.1069 389.947,83.2735 383.5,91C 377.415,96.0217 372.248,95.1883 368,88.5C 366.716,82.1719 367.882,76.3386 371.5,71C 369.831,65.3541 370.497,60.0207 373.5,55C 367.452,45.4797 368.452,36.813 376.5,29C 385.298,22.1045 395.298,18.9379 406.5,19.5C 406.5,20.5 406.5,21.5 406.5,22.5C 391.92,21.706 380.753,27.3727 373,39.5C 372.333,42.5 372.333,45.5 373,48.5C 373.368,49.91 374.201,50.91 375.5,51.5C 380.241,46.2207 385.741,45.2207 392,48.5C 392.667,49.8333 392.667,51.1667 392,52.5C 390.357,54.9768 388.524,57.3102 386.5,59.5C 396.851,62.2334 407.184,62.0668 417.5,59C 434.171,50.9632 436.838,39.6299 425.5,25C 417.126,19.1272 407.793,16.9606 397.5,18.5C 397.5,17.5 397.5,16.5 397.5,15.5 Z"/></g>
<g><path style="opacity:1" fill="#ececec" d="M 382.5,49.5 C 384.924,49.1924 387.257,49.5258 389.5,50.5C 386.066,54.3698 383.399,58.7031 381.5,63.5C 381.833,64.1667 382.167,64.8333 382.5,65.5C 388.434,66.3943 388.767,67.8943 383.5,70C 373.608,71.76 370.774,67.9266 375,58.5C 376.642,54.6997 379.142,51.6997 382.5,49.5 Z"/></g>
<g><path style="opacity:1" fill="#212121" d="M 401.5,36.5 C 402.5,36.5 403.5,36.5 404.5,36.5C 403.336,39.1865 401.503,41.5199 399,43.5C 397.991,45.0249 397.491,46.6916 397.5,48.5C 396.5,48.5 395.5,48.5 394.5,48.5C 394.46,45.5755 395.293,42.9088 397,40.5C 398.992,39.6719 400.492,38.3386 401.5,36.5 Z"/></g>
<g><path style="opacity:1" fill="#212121" d="M 404.5,25.5 C 405.5,25.5 406.5,25.5 407.5,25.5C 407.421,26.9305 407.754,28.2638 408.5,29.5C 405.52,30.3526 404.187,29.0192 404.5,25.5 Z"/></g>
<g><path style="opacity:1" fill="#1b1b1b" d="M 394.5,26.5 C 395.5,26.5 396.5,26.5 397.5,26.5C 397.5,28.1667 397.5,29.8333 397.5,31.5C 396.5,31.5 395.5,31.5 394.5,31.5C 394.5,29.8333 394.5,28.1667 394.5,26.5 Z"/></g>
<g><path style="opacity:1" fill="#171717" d="M 233.5,170.5 C 232.5,170.5 231.5,170.5 230.5,170.5C 222.609,165.878 214.609,165.545 206.5,169.5C 205.585,170.328 204.919,171.328 204.5,172.5C 207.373,172.876 210.373,172.876 213.5,172.5C 219.5,172.5 225.5,172.5 231.5,172.5C 232.995,172.415 233.995,173.081 234.5,174.5C 223.177,175.406 211.844,176.073 200.5,176.5C 203.016,166.061 209.682,161.894 220.5,164C 224.112,165.15 227.778,165.983 231.5,166.5C 234.806,146.918 240.139,127.918 247.5,109.5C 246.876,103.528 246.542,97.5283 246.5,91.5C 246.303,83.8657 246.97,76.3657 248.5,69C 235.177,71.1261 222.51,69.1261 210.5,63C 203.855,56.5704 196.689,50.737 189,45.5C 185.503,40.6793 183.836,35.346 184,29.5C 184.997,26.0053 187.164,23.672 190.5,22.5C 192.029,22.5288 193.196,23.1955 194,24.5C 195.309,28.0991 196.809,31.5991 198.5,35C 200.582,34.3931 202.749,33.5597 205,32.5C 205.5,32.8333 206,33.1667 206.5,33.5C 207.575,36.438 207.741,39.438 207,42.5C 205.62,45.4282 204.12,48.2616 202.5,51C 207.555,58.3556 214.555,63.0223 223.5,65C 231.529,66.8705 239.529,66.8705 247.5,65C 239.45,61.739 232.616,56.9057 227,50.5C 219.656,33.037 225.489,22.8704 244.5,20C 248.167,19.3333 251.833,19.3333 255.5,20C 259.145,20.9949 262.812,21.8283 266.5,22.5C 266.5,23.5 266.5,24.5 266.5,25.5C 258.289,23.55 249.955,23.05 241.5,24C 226.166,28.1662 222.666,36.9995 231,50.5C 245.064,64.5795 261.23,67.7462 279.5,60C 286.529,51.4908 287.363,42.3242 282,32.5C 275.683,25.9251 268.183,21.2584 259.5,18.5C 282.201,20.5177 291.367,32.8511 287,55.5C 283.957,60.8768 279.457,64.3768 273.5,66C 266.814,67.5165 260.147,67.8498 253.5,67C 265.036,76.8212 278.369,80.4878 293.5,78C 295.949,77.2754 298.283,76.2754 300.5,75C 298.746,69.0382 299.413,63.3716 302.5,58C 306.651,57.302 308.984,59.1354 309.5,63.5C 313.274,61.2294 316.607,58.3961 319.5,55C 321.903,54.3698 323.737,55.2031 325,57.5C 326.322,66.3512 322.822,72.5178 314.5,76C 306.938,76.7274 299.604,78.3941 292.5,81C 277.037,83.2202 263.371,79.3869 251.5,69.5C 249.592,81.4318 249.092,93.4318 250,105.5C 256.23,125.425 260.73,145.758 263.5,166.5C 270.669,163.318 278.003,162.818 285.5,165C 290.349,167.344 293.016,171.177 293.5,176.5C 282.208,174.435 270.875,174.102 259.5,175.5C 259.5,174.5 259.5,173.5 259.5,172.5C 269.674,171.438 279.674,171.438 289.5,172.5C 286.296,168.203 281.963,166.203 276.5,166.5C 270.606,167.057 264.939,168.391 259.5,170.5C 259.015,151.589 255.515,133.255 249,115.5C 241.507,133.133 236.34,151.467 233.5,170.5 Z"/></g>
<g><path style="opacity:1" fill="#f2f2f2" d="M 320.5,57.5 C 323.632,62.6563 322.632,67.1563 317.5,71C 304.313,78.4172 299.979,75.2505 304.5,61.5C 304.895,66.0126 307.229,67.5126 311.5,66C 315,63.6658 318,60.8325 320.5,57.5 Z"/></g>
<g><path style="opacity:1" fill="#191919" d="M 241.5,36.5 C 245.697,38.4985 250.031,40.3319 254.5,42C 259.892,42.0867 265.226,42.2534 270.5,42.5C 269.286,44.0691 267.619,44.9024 265.5,45C 257.906,46.4565 250.906,45.1232 244.5,41C 242.859,39.871 241.859,38.371 241.5,36.5 Z"/></g>
<g><path style="opacity:1" fill="#2a2a2a" d="M 263.5,29.5 C 264.5,29.5 265.5,29.5 266.5,29.5C 266.884,31.6648 266.217,33.3315 264.5,34.5C 263.548,32.9547 263.215,31.288 263.5,29.5 Z"/></g>
<g><path style="opacity:1" fill="#efefef" d="M 189.5,25.5 C 190.496,25.4142 191.329,25.7476 192,26.5C 193.068,31.0504 194.902,35.2171 197.5,39C 200.804,40.0419 202.971,38.8753 204,35.5C 204.865,40.2391 203.698,44.4057 200.5,48C 194.033,47.4839 189.866,43.9839 188,37.5C 187.081,33.2686 187.581,29.2686 189.5,25.5 Z"/></g>
<g><path style="opacity:1" fill="#212121" d="M 253.5,26.5 C 254.675,26.281 255.675,26.6143 256.5,27.5C 255.754,28.7362 255.421,30.0695 255.5,31.5C 254.5,31.5 253.5,31.5 252.5,31.5C 252.629,29.7839 252.962,28.1172 253.5,26.5 Z"/></g>
<g><path style="opacity:1" fill="#f0f0f0" d="M 390.5,64.5 C 392.924,64.1924 395.257,64.5258 397.5,65.5C 393.174,74.979 387.174,83.1456 379.5,90C 373.259,92.1964 370.259,90.0298 370.5,83.5C 370.622,80.3021 371.455,77.3021 373,74.5C 378.299,74.0175 383.466,72.8508 388.5,71C 390.229,69.2111 390.896,67.0444 390.5,64.5 Z"/></g>
<g><path style="opacity:1" fill="#181818" d="M 78.5,17.5 C 81.2469,17.1866 83.9135,17.52 86.5,18.5C 86.2907,19.086 85.9574,19.586 85.5,20C 71.9347,19.7013 61.1014,24.8679 53,35.5C 51.1385,48.9117 56.9719,56.745 70.5,59C 78.2318,59.8561 85.8984,59.5228 93.5,58C 111.935,52.352 116.435,41.1853 107,24.5C 98.8418,17.2834 89.3418,14.6167 78.5,16.5C 89.4734,11.4964 99.9734,13.8298 110,23.5C 119.258,38.7183 116.092,50.5516 100.5,59C 96.3921,60.0265 92.3921,61.3599 88.5,63C 95.006,68.954 102.673,72.6207 111.5,74C 120.151,75.679 128.818,75.8457 137.5,74.5C 137.403,67.8599 140.069,62.6932 145.5,59C 147.367,58.2888 148.867,58.7888 150,60.5C 150.495,62.4727 150.662,64.4727 150.5,66.5C 154.668,65.2777 158.835,63.9444 163,62.5C 168.231,68.6427 167.065,73.8094 159.5,78C 152.371,80.4469 145.538,79.9469 139,76.5C 124.853,79.8003 111.02,78.6336 97.5,73C 95.2462,71.6233 93.0795,70.1233 91,68.5C 90.8333,69 90.6667,69.5 90.5,70C 94.5599,85.2298 94.2265,100.396 89.5,115.5C 95.5178,126.884 100.018,138.884 103,151.5C 103.788,157.22 103.621,162.886 102.5,168.5C 103,168.833 103.5,169.167 104,169.5C 110.78,167.081 117.614,166.914 124.5,169C 128.998,171.494 131.332,175.327 131.5,180.5C 120.196,178.657 108.862,178.324 97.5,179.5C 97.5,178.5 97.5,177.5 97.5,176.5C 107.488,175.618 117.488,175.451 127.5,176C 124.654,171.745 120.654,169.912 115.5,170.5C 109.541,170.74 103.875,172.073 98.5,174.5C 102.481,155.413 98.981,137.746 88,121.5C 84.1181,138.846 76.6181,154.346 65.5,168C 69.1784,167.096 73.0117,166.596 77,166.5C 87.1848,165.508 91.0181,169.841 88.5,179.5C 77.5299,178.268 66.5299,177.268 55.5,176.5C 59.2988,174.95 63.2988,174.283 67.5,174.5C 73.9052,174.606 80.2386,175.273 86.5,176.5C 87.1446,173.453 86.1446,171.287 83.5,170C 75.3309,168.834 67.4976,170.001 60,173.5C 59.5,173.167 59,172.833 58.5,172.5C 69.8458,159.298 78.0125,144.298 83,127.5C 85.9695,116.957 88.3028,106.29 90,95.5C 91.1927,86.2324 90.1927,77.2324 87,68.5C 81.6872,76.1485 74.8539,81.9818 66.5,86C 57.077,90.1039 47.4103,93.4372 37.5,96C 29.6051,98.8644 22.4385,97.6977 16,92.5C 13.528,88.8673 13.028,85.034 14.5,81C 19.4697,81.7037 24.4697,82.537 29.5,83.5C 28.275,76.8822 30.6084,75.0488 36.5,78C 39.9847,81.4689 41.9847,85.6356 42.5,90.5C 59.8998,88.0545 74.0665,80.0545 85,66.5C 85.6838,65.2161 85.5171,64.0495 84.5,63C 74.3078,64.0344 64.9744,61.701 56.5,56C 45.8713,43.2777 47.538,32.2777 61.5,23C 66.8847,20.2606 72.5513,18.4272 78.5,17.5 Z"/></g>
<g><path style="opacity:1" fill="#171717" d="M 100.5,35.5 C 101.649,35.7911 102.316,36.6244 102.5,38C 100.446,45.7176 95.4462,50.3843 87.5,52C 77.4384,53.6579 68.6051,51.1579 61,44.5C 59.4412,42.7834 58.6079,40.7834 58.5,38.5C 62.6191,41.7603 66.9525,44.9269 71.5,48C 82.6251,51.9487 91.7917,49.4487 99,40.5C 99.3519,38.7525 99.8519,37.0858 100.5,35.5 Z"/></g>
<g><path style="opacity:1" fill="#202020" d="M 73.5,29.5 C 74.5,29.5 75.5,29.5 76.5,29.5C 76.5,31.1667 76.5,32.8333 76.5,34.5C 75.5,34.5 74.5,34.5 73.5,34.5C 73.5,32.8333 73.5,31.1667 73.5,29.5 Z"/></g>
<g><path style="opacity:1" fill="#111111" d="M 84.5,28.5 C 86.1207,28.7869 87.1207,29.7869 87.5,31.5C 86.675,32.3857 85.675,32.719 84.5,32.5C 84.5,31.1667 84.5,29.8333 84.5,28.5 Z"/></g>
<g><path style="opacity:1" fill="#eeeeee" d="M 146.5,61.5 C 147.21,63.8927 147.877,66.3927 148.5,69C 153.475,68.6806 158.308,67.5139 163,65.5C 163.624,71.0481 161.124,74.5481 155.5,76C 139.206,78.8525 136.206,74.0192 146.5,61.5 Z"/></g>
<g><path style="opacity:1" fill="#f9f9f9" d="M 415.5,91.5 C 412.713,90.5233 409.713,90.19 406.5,90.5C 406.822,84.642 406.489,78.9753 405.5,73.5C 405.5,71.5 405.5,69.5 405.5,67.5C 413.892,68.7399 421.558,71.7399 428.5,76.5C 429.752,78.0009 430.752,79.6675 431.5,81.5C 430.667,83.1667 429.833,84.8333 429,86.5C 426.21,89.1292 423.043,91.1292 419.5,92.5C 418.151,92.1543 416.817,91.821 415.5,91.5 Z"/></g>
<g><path style="opacity:1" fill="#efefef" d="M 32.5,79.5 C 37.3687,82.4005 39.3687,86.5672 38.5,92C 31.3777,95.5893 24.5444,95.0893 18,90.5C 16.4424,88.2311 16.2757,85.8978 17.5,83.5C 22.1864,86.1876 27.1864,87.0209 32.5,86C 33.3331,83.9189 33.3331,81.7522 32.5,79.5 Z"/></g>
<g><path style="opacity:1" fill="#383838" d="M 405.5,73.5 C 406.489,78.9753 406.822,84.642 406.5,90.5C 409.713,90.19 412.713,90.5233 415.5,91.5C 412.223,91.2161 409.057,91.5495 406,92.5C 405.5,86.1754 405.334,79.8421 405.5,73.5 Z"/></g>
<g><path style="opacity:1" fill="#e6e6e6" d="M 406.5,93.5 C 418.638,92.3867 421.471,97.0534 415,107.5C 410.996,113.384 405.829,114.884 399.5,112C 403.571,108.598 406.904,104.598 409.5,100C 408.104,98.2443 406.437,96.7443 404.5,95.5C 405.243,94.8182 405.909,94.1515 406.5,93.5 Z"/></g>
<g><path style="opacity:1" fill="#181818" d="M 526.5,21.5 C 529.807,20.9492 533.14,20.6159 536.5,20.5C 536.5,21.5 536.5,22.5 536.5,23.5C 531.667,23.3746 527,24.2079 522.5,26C 507.562,33.7023 508.062,35.5356 524,31.5C 527.526,32.2464 530.693,33.5797 533.5,35.5C 533.491,33.6916 533.991,32.0249 535,30.5C 538.868,27.872 542.701,27.872 546.5,30.5C 549.368,28.4682 552.368,26.6349 555.5,25C 553.404,23.2342 551.071,21.9009 548.5,21C 541.475,20.3405 534.808,19.1738 528.5,17.5C 540.747,14.27 551.581,16.9367 561,25.5C 570.442,37.7449 569.275,48.9115 557.5,59C 550.331,62.4502 542.998,65.2835 535.5,67.5C 540.167,75.348 547,79.6813 556,80.5C 569.05,78.5709 573.217,71.4042 568.5,59C 571.033,53.5137 572.366,47.6803 572.5,41.5C 573.5,41.5 574.5,41.5 575.5,41.5C 575.54,44.8806 575.207,48.2139 574.5,51.5C 576.911,51.1367 578.411,52.1367 579,54.5C 580.654,60.6874 578.82,65.5207 573.5,69C 572.297,76.5379 567.963,81.2046 560.5,83C 549.612,84.4727 541.112,80.6393 535,71.5C 532.415,103.91 537.082,135.244 549,165.5C 549.561,166.022 550.228,166.355 551,166.5C 560.945,161.659 570.112,162.659 578.5,169.5C 580.055,171.943 580.722,174.61 580.5,177.5C 569.236,176.04 557.902,175.04 546.5,174.5C 546.709,173.914 547.043,173.414 547.5,173C 556.527,171.077 565.527,171.244 574.5,173.5C 575.167,173.167 575.833,172.833 576.5,172.5C 572.147,166.915 566.48,165.081 559.5,167C 556.124,168.07 552.79,169.236 549.5,170.5C 548.833,170.167 548.167,169.833 547.5,169.5C 540.957,152.996 536.124,135.996 533,118.5C 528.534,135.899 522.867,152.899 516,169.5C 515.275,170.059 514.442,170.392 513.5,170.5C 510.167,169.333 506.833,168.167 503.5,167C 496.52,165.081 490.853,166.915 486.5,172.5C 496.391,171.375 506.391,171.375 516.5,172.5C 516.5,173.5 516.5,174.5 516.5,175.5C 505.146,175.34 493.813,175.674 482.5,176.5C 484.003,168.499 488.836,164.166 497,163.5C 502.092,164.071 507.092,165.071 512,166.5C 512.833,166.167 513.667,165.833 514.5,165.5C 521.084,149.591 525.917,133.257 529,116.5C 524,125.063 517.334,127.063 509,122.5C 508.333,121.167 508.333,119.833 509,118.5C 511.846,116.743 514.512,114.743 517,112.5C 516.028,110.796 514.861,108.962 513.5,107C 514.154,105.013 515.487,103.68 517.5,103C 514.319,101.367 510.986,100.034 507.5,99C 503.535,94.4371 503.702,89.9371 508,85.5C 514.283,78.211 521.449,72.0443 529.5,67C 521.89,66.351 514.89,64.0177 508.5,60C 500.114,51.319 499.447,42.1523 506.5,32.5C 512.289,27.2714 518.956,23.6047 526.5,21.5 Z"/></g>
<g><path style="opacity:1" fill="#f4f4f4" d="M 530.5,69.5 C 530.347,82.0022 530.514,94.6688 531,107.5C 530.417,105.998 529.584,104.665 528.5,103.5C 522.729,100.723 516.729,98.5564 510.5,97C 506.944,94.2241 506.777,91.0574 510,87.5C 516.25,80.6582 523.083,74.6582 530.5,69.5 Z"/></g>
<g><path style="opacity:1" fill="#e9e9e9" d="M 572.5,54.5 C 573.822,54.33 574.989,54.6634 576,55.5C 576.667,57.8333 576.667,60.1667 576,62.5C 572.983,63.7171 571.483,62.5505 571.5,59C 571.605,57.4085 571.939,55.9085 572.5,54.5 Z"/></g>
<g><path style="opacity:1" fill="#e3e3e3" d="M 539.5,30.5 C 544.895,31.1221 546.562,33.9554 544.5,39C 538.348,40.7345 535.848,38.5679 537,32.5C 537.995,31.9341 538.828,31.2674 539.5,30.5 Z"/></g>
<g><path style="opacity:1" fill="#d6d6d6" d="M 521.5,34.5 C 528.486,34.331 530.153,37.1643 526.5,43C 519.409,43.3958 517.742,40.5625 521.5,34.5 Z"/></g>
<g><path style="opacity:1" fill="#0f0f0f" d="M 522.5,35.5 C 523.649,35.7911 524.316,36.6244 524.5,38C 524.167,38.8333 523.833,39.6667 523.5,40.5C 522.548,38.9547 522.215,37.288 522.5,35.5 Z"/></g>
<g><path style="opacity:1" fill="#1b1b1b" d="M 539.5,32.5 C 542.423,33.1634 543.09,34.8301 541.5,37.5C 539.783,36.3315 539.116,34.6648 539.5,32.5 Z"/></g>
<g><path style="opacity:1" fill="#f2f2f2" d="M 556.5,27.5 C 563.728,32.3527 565.895,39.0194 563,47.5C 558.637,55.1087 552.137,59.942 543.5,62C 536.548,63.3968 529.548,63.7301 522.5,63C 514.671,61.4868 508.837,57.3201 505,50.5C 504.333,47.1667 504.333,43.8333 505,40.5C 505.465,39.0692 506.299,37.9025 507.5,37C 510.475,36.9565 513.475,37.1231 516.5,37.5C 517.114,45.3101 521.114,47.8101 528.5,45C 530.628,43.3331 531.961,41.1664 532.5,38.5C 536.026,42.2933 540.36,43.46 545.5,42C 547.871,39.3255 549.037,36.1589 549,32.5C 551.479,30.6859 553.979,29.0192 556.5,27.5 Z"/></g>
<g><path style="opacity:1" fill="#8c8c8c" d="M 532.5,52.5 C 534.5,53.1667 536.5,53.8333 538.5,54.5C 535.278,54.8919 532.278,54.3919 529.5,53C 530.448,52.5172 531.448,52.3505 532.5,52.5 Z"/></g>
<g><path style="opacity:1" fill="#181818" d="M 532.5,52.5 C 531.448,52.3505 530.448,52.5172 529.5,53C 532.278,54.3919 535.278,54.8919 538.5,54.5C 538.586,55.4959 538.252,56.3292 537.5,57C 529.878,58.3507 523.545,56.184 518.5,50.5C 524.138,49.6701 529.804,49.1701 535.5,49C 539.713,47.3896 543.713,45.5563 547.5,43.5C 547.439,45.5922 546.439,47.0922 544.5,48C 540.797,50.354 536.797,51.854 532.5,52.5 Z"/></g>
<g><path style="opacity:1" fill="#eaeaea" d="M 516.5,107.5 C 530.12,105.238 532.12,109.405 522.5,120C 519.012,122.786 515.345,123.119 511.5,121C 514.63,118.872 517.463,116.372 520,113.5C 521.024,110.121 519.857,108.121 516.5,107.5 Z"/></g>
<g><path style="opacity:1" fill="#ebebeb" d="M 230.5,170.5 C 224.833,171.167 219.167,171.833 213.5,172.5C 210.373,172.876 207.373,172.876 204.5,172.5C 204.919,171.328 205.585,170.328 206.5,169.5C 214.609,165.545 222.609,165.878 230.5,170.5 Z"/></g>
<g><path style="opacity:1" fill="#9f9f9f" d="M 230.5,170.5 C 231.5,170.5 232.5,170.5 233.5,170.5C 232.833,171.167 232.167,171.833 231.5,172.5C 225.5,172.5 219.5,172.5 213.5,172.5C 219.167,171.833 224.833,171.167 230.5,170.5 Z"/></g>
<g><path style="opacity:1" fill="#171717" d="M 253.5,281.5 C 252.91,280.234 252.41,278.901 252,277.5C 251.5,284.826 251.334,292.159 251.5,299.5C 250.647,304.889 249.814,310.222 249,315.5C 267.471,329.911 273.804,348.578 268,371.5C 269.419,370.54 270.919,369.707 272.5,369C 281.75,366.612 289.584,368.779 296,375.5C 297.128,377.345 297.628,379.345 297.5,381.5C 286.207,379.502 274.873,379.169 263.5,380.5C 263.36,378.876 264.027,377.71 265.5,377C 274.541,376.839 283.541,376.672 292.5,376.5C 289.083,372.691 284.75,371.024 279.5,371.5C 274.019,372.215 268.686,373.549 263.5,375.5C 266.641,364.273 267.141,352.94 265,341.5C 261.934,332.277 256.434,324.944 248.5,319.5C 246.131,335.363 237.798,346.863 223.5,354C 219.206,354.819 215.206,356.319 211.5,358.5C 212.748,360.459 214.415,361.959 216.5,363C 221.229,364.782 225.729,366.949 230,369.5C 236.594,381.248 233.427,384.748 220.5,380C 210.553,375.934 205.22,368.767 204.5,358.5C 206.758,360.677 208.258,363.343 209,366.5C 213.649,374.241 220.483,377.908 229.5,377.5C 229.358,374.383 228.024,371.883 225.5,370C 220.878,368.573 216.545,366.573 212.5,364C 210.226,362.235 208.559,360.068 207.5,357.5C 207.818,356.353 208.484,355.519 209.5,355C 228.51,351.321 240.343,340.154 245,321.5C 245.203,315.995 246.203,310.661 248,305.5C 250.372,292.678 249.872,280.012 246.5,267.5C 232.85,278.468 225.85,292.802 225.5,310.5C 230.113,310.933 233.946,312.933 237,316.5C 238.28,321.921 236.113,323.921 230.5,322.5C 231.415,327.232 232.248,331.899 233,336.5C 230.336,338.955 227.502,339.122 224.5,337C 216.179,328.622 215.346,319.456 222,309.5C 222.939,291.789 230.106,277.289 243.5,266C 230.818,265.75 221.318,260.25 215,249.5C 213.203,238.26 217.37,230.093 227.5,225C 234.966,220.788 242.966,218.955 251.5,219.5C 251.5,220.5 251.5,221.5 251.5,222.5C 238.997,222.055 228.497,226.388 220,235.5C 215.111,247.15 218.611,255.317 230.5,260C 246.659,265.06 261.159,262.226 274,251.5C 279.32,241.267 277.82,232.1 269.5,224C 261.228,218.993 252.228,217.16 242.5,218.5C 242.5,217.5 242.5,216.5 242.5,215.5C 255.096,213.535 265.93,216.868 275,225.5C 285.162,242.02 281.329,254.187 263.5,262C 259.687,263.772 255.687,264.605 251.5,264.5C 253.786,278.238 260.119,289.738 270.5,299C 272.94,300.303 275.44,301.47 278,302.5C 280.732,300.548 283.565,298.715 286.5,297C 295.087,295.071 297.087,297.571 292.5,304.5C 296.432,306.033 300.432,307.366 304.5,308.5C 305.571,315.111 302.571,318.445 295.5,318.5C 289.166,318.083 283.999,315.416 280,310.5C 278.991,308.975 278.491,307.308 278.5,305.5C 273.642,304.404 269.309,302.238 265.5,299C 260.378,293.919 256.378,288.086 253.5,281.5 Z"/></g>
<g><path style="opacity:1" fill="#f5f5f5" d="M 525.5,216.5 C 525.5,216.167 525.5,215.833 525.5,215.5C 539.849,212.093 550.682,216.76 558,229.5C 561.113,238.827 558.613,246.327 550.5,252C 538.495,258.568 525.829,260.235 512.5,257C 500.611,252.317 497.111,244.15 502,232.5C 509.972,223.931 519.805,219.264 531.5,218.5C 531.5,217.5 531.5,216.5 531.5,215.5C 529.435,215.517 527.435,215.85 525.5,216.5 Z"/></g>
<g><path style="opacity:1" fill="#202020" d="M 259.5,224.5 C 262.47,224.746 263.803,226.412 263.5,229.5C 260.53,229.254 259.197,227.588 259.5,224.5 Z"/></g>
<g><path style="opacity:1" fill="#1e1e1e" d="M 249.5,226.5 C 250.5,226.5 251.5,226.5 252.5,226.5C 252.5,228.167 252.5,229.833 252.5,231.5C 251.5,231.5 250.5,231.5 249.5,231.5C 249.5,229.833 249.5,228.167 249.5,226.5 Z"/></g>
<g><path style="opacity:1" fill="#1a1a1a" d="M 268.5,233.5 C 269.5,233.5 270.5,233.5 271.5,233.5C 271.703,235.39 271.037,236.89 269.5,238C 261.64,243.77 252.974,245.603 243.5,243.5C 243.5,242.5 243.5,241.5 243.5,240.5C 253.369,243.036 261.702,240.702 268.5,233.5 Z"/></g>
<g><path style="opacity:1" fill="#171717" d="M 525.5,216.5 C 527.435,215.85 529.435,215.517 531.5,215.5C 531.5,216.5 531.5,217.5 531.5,218.5C 519.805,219.264 509.972,223.931 502,232.5C 497.111,244.15 500.611,252.317 512.5,257C 525.829,260.235 538.495,258.568 550.5,252C 558.613,246.327 561.113,238.827 558,229.5C 550.682,216.76 539.849,212.093 525.5,215.5C 524.5,215.5 523.5,215.5 522.5,215.5C 522.5,214.5 522.5,213.5 522.5,212.5C 534.3,209.64 544.966,211.806 554.5,219C 567.391,236.68 563.724,250.014 543.5,259C 539.067,259.852 534.733,261.019 530.5,262.5C 533.789,270.611 538.456,277.778 544.5,284C 552.438,288.887 561.104,290.72 570.5,289.5C 570.877,283.283 573.877,278.783 579.5,276C 580.944,275.219 582.277,275.386 583.5,276.5C 584.78,278.702 584.78,280.868 583.5,283C 588.963,282.962 594.296,282.295 599.5,281C 602.671,286.431 601.671,291.098 596.5,295C 587.984,298.605 579.651,298.272 571.5,294C 554.651,295.072 541.817,288.572 533,274.5C 533.353,289.76 531.687,304.76 528,319.5C 527.333,328.833 527.333,338.167 528,347.5C 528.772,354.03 530.272,360.363 532.5,366.5C 539.476,367.331 546.476,367.831 553.5,368C 559.321,370.143 562.321,374.31 562.5,380.5C 547.516,379.571 532.516,378.904 517.5,378.5C 519.22,377.066 521.22,376.233 523.5,376C 530.91,375.707 538.243,375.54 545.5,375.5C 543.393,371.863 540.227,370.196 536,370.5C 530.576,371.315 525.41,372.982 520.5,375.5C 519.104,373.028 518.27,370.362 518,367.5C 517.333,360.167 517.333,352.833 518,345.5C 521.872,328.883 525.539,312.216 529,295.5C 529.667,287.833 529.667,280.167 529,272.5C 524.87,291.63 513.037,301.797 493.5,303C 487.343,311.573 479.01,314.906 468.5,313C 463.214,310.436 461.548,306.436 463.5,301C 468.161,300.818 472.661,299.985 477,298.5C 473.99,290.842 476.49,288.342 484.5,291C 488.769,294.135 493.103,296.968 497.5,299.5C 512.076,297.761 521.242,289.761 525,275.5C 525.994,270.882 526.494,266.215 526.5,261.5C 516.011,262.504 507.178,259.171 500,251.5C 493.732,240.404 495.899,231.238 506.5,224C 512.403,220.381 518.736,217.881 525.5,216.5 Z"/></g>
<g><path style="opacity:1" fill="#1b1b1b" d="M 511.5,232.5 C 522.901,239.298 534.901,240.298 547.5,235.5C 546.215,239.002 543.548,240.835 539.5,241C 533.833,241.667 528.167,241.667 522.5,241C 520.481,240.55 518.648,239.717 517,238.5C 516.383,239.449 516.549,240.282 517.5,241C 520.682,243.091 524.015,244.925 527.5,246.5C 527.113,247.72 526.28,248.387 525,248.5C 516.425,246.129 511.925,240.795 511.5,232.5 Z"/></g>
<g><path style="opacity:1" fill="#181818" d="M 519.5,224.5 C 521.5,224.5 523.5,224.5 525.5,224.5C 525.5,225.5 525.5,226.5 525.5,227.5C 523.08,227.292 520.747,227.626 518.5,228.5C 518.167,228 517.833,227.5 517.5,227C 518.056,225.989 518.722,225.156 519.5,224.5 Z"/></g>
<g><path style="opacity:1" fill="#2a2a2a" d="M 530.5,222.5 C 533.91,222.384 535.244,224.05 534.5,227.5C 533.5,227.5 532.5,227.5 531.5,227.5C 531.371,225.784 531.038,224.117 530.5,222.5 Z"/></g>
<g><path style="opacity:1" fill="#181818" d="M 386.5,226.5 C 389.391,225.597 392.391,225.264 395.5,225.5C 395.5,226.5 395.5,227.5 395.5,228.5C 381.702,228.312 371.202,233.978 364,245.5C 362.365,255.712 366.532,262.545 376.5,266C 393.28,270.348 407.78,266.515 420,254.5C 424.272,239.881 419.105,230.047 404.5,225C 398.509,224.501 392.509,224.334 386.5,224.5C 386.5,223.5 386.5,222.5 386.5,221.5C 396.733,220.329 406.4,221.996 415.5,226.5C 415.019,222.651 416.686,220.651 420.5,220.5C 420.649,219.448 420.483,218.448 420,217.5C 416.328,214.658 412.828,211.658 409.5,208.5C 412.5,202.857 417.167,201.024 423.5,203C 426.63,205.128 429.463,207.628 432,210.5C 434.187,218.801 437.187,226.801 441,234.5C 443.014,258.839 431.848,273.006 407.5,277C 402.044,277.323 396.711,277.49 391.5,277.5C 392.96,283.559 393.627,289.726 393.5,296C 393.072,302.846 392.905,309.679 393,316.5C 400.898,333.197 404.731,350.864 404.5,369.5C 412.118,367.146 419.785,366.98 427.5,369C 432.523,371.215 434.856,375.048 434.5,380.5C 423.574,378.837 412.574,378.17 401.5,378.5C 401.5,377.5 401.5,376.5 401.5,375.5C 411.227,375.718 420.893,375.718 430.5,375.5C 427.33,371.503 423.163,369.836 418,370.5C 412.75,370.305 407.917,371.639 403.5,374.5C 402.502,356.89 399.002,339.557 393,322.5C 392.632,321.09 391.799,320.09 390.5,319.5C 382.548,336.969 377.548,355.303 375.5,374.5C 370.041,372.348 364.374,371.015 358.5,370.5C 353.682,369.744 350.016,371.41 347.5,375.5C 357.099,375.177 366.766,375.511 376.5,376.5C 376.5,377.5 376.5,378.5 376.5,379.5C 365.753,377.904 355.087,378.238 344.5,380.5C 343.258,375.478 344.924,371.644 349.5,369C 357.671,366.819 365.671,367.319 373.5,370.5C 375.447,351.268 380.614,332.935 389,315.5C 390.971,302.837 390.971,290.17 389,277.5C 388.326,276.422 387.326,275.755 386,275.5C 368.217,278.026 354.217,272.026 344,257.5C 341.554,250.715 340.887,243.715 342,236.5C 344.221,231.729 345.554,226.729 346,221.5C 349.383,212.94 355.549,207.94 364.5,206.5C 367.528,206.847 370.194,208.014 372.5,210C 373.576,211.726 373.743,213.559 373,215.5C 368.74,217.378 364.906,219.878 361.5,223C 367.589,228.806 366.423,231.972 358,232.5C 354.711,232.386 351.544,231.719 348.5,230.5C 340.303,247.077 344.303,259.91 360.5,269C 369.209,273.655 378.209,274.489 387.5,271.5C 377.562,270.985 369.396,266.985 363,259.5C 358.059,249.213 360.226,240.713 369.5,234C 374.699,230.4 380.365,227.9 386.5,226.5 Z"/></g>
<g><path style="opacity:1" fill="#f5f5f5" d="M 415.5,226.5 C 421.429,230.04 427.596,230.374 434,227.5C 443.511,249.665 436.678,264.832 413.5,273C 406.882,274.378 400.215,274.711 393.5,274C 392.09,273.632 391.09,272.799 390.5,271.5C 402.137,270.396 412.303,266.062 421,258.5C 426.57,250.709 426.903,242.709 422,234.5C 419.999,231.669 417.833,229.003 415.5,226.5 Z"/></g>
<g><path style="opacity:1" fill="#f6f6f6" d="M 386.5,224.5 C 392.509,224.334 398.509,224.501 404.5,225C 419.105,230.047 424.272,239.881 420,254.5C 407.78,266.515 393.28,270.348 376.5,266C 366.532,262.545 362.365,255.712 364,245.5C 371.202,233.978 381.702,228.312 395.5,228.5C 395.5,227.5 395.5,226.5 395.5,225.5C 392.391,225.264 389.391,225.597 386.5,226.5C 386.5,225.833 386.5,225.167 386.5,224.5 Z"/></g>
<g><path style="opacity:1" fill="#1a1a1a" d="M 387.5,242.5 C 395.433,241.87 403.1,242.87 410.5,245.5C 410.5,246.5 410.5,247.5 410.5,248.5C 402.759,245.681 394.759,244.847 386.5,246C 382.554,247.306 378.888,249.139 375.5,251.5C 374.269,250.349 374.269,249.183 375.5,248C 379.227,245.299 383.227,243.465 387.5,242.5 Z"/></g>
<g><path style="opacity:1" fill="#222222" d="M 384.5,233.5 C 385.5,233.5 386.5,233.5 387.5,233.5C 387.884,235.665 387.217,237.332 385.5,238.5C 384.548,236.955 384.215,235.288 384.5,233.5 Z"/></g>
<g><path style="opacity:1" fill="#1c1c1c" d="M 394.5,231.5 C 397.423,232.163 398.09,233.83 396.5,236.5C 394.783,235.332 394.116,233.665 394.5,231.5 Z"/></g>
<g><path style="opacity:1" fill="#ededed" d="M 361.5,209.5 C 365.05,209.133 368.05,210.133 370.5,212.5C 367.048,215.399 363.382,218.066 359.5,220.5C 357.749,224.149 358.749,226.815 362.5,228.5C 358.342,229.927 354.342,229.593 350.5,227.5C 348.856,221.604 350.523,216.77 355.5,213C 357.727,212.059 359.727,210.892 361.5,209.5 Z"/></g>
<g><path style="opacity:1" fill="#efefef" d="M 415.5,205.5 C 427.724,206.543 433.057,213.043 431.5,225C 426.899,227.292 422.566,226.958 418.5,224C 419.949,222.883 421.616,222.216 423.5,222C 424.672,220.132 424.505,218.298 423,216.5C 419.515,214.014 416.348,211.181 413.5,208C 414.056,206.989 414.722,206.156 415.5,205.5 Z"/></g>
<g><path style="opacity:1" fill="#191919" d="M 138.5,249.5 C 139.461,247.735 139.795,245.735 139.5,243.5C 138.5,243.5 137.5,243.5 136.5,243.5C 130.282,241.829 127.615,237.996 128.5,232C 130.473,231.505 132.473,231.338 134.5,231.5C 134.128,227.345 133.128,223.345 131.5,219.5C 131.608,218.558 131.941,217.725 132.5,217C 141.923,216.244 146.923,220.744 147.5,230.5C 146.755,236.235 144.922,241.568 142,246.5C 141.538,255.683 139.205,264.349 135,272.5C 125.658,279.585 115.158,284.085 103.5,286C 102.978,286.561 102.645,287.228 102.5,288C 108.749,301.595 110.082,315.428 106.5,329.5C 119.7,317.755 131.2,319.088 141,333.5C 141.897,336.292 143.063,338.959 144.5,341.5C 149.517,332.29 157.184,328.123 167.5,329C 170.209,329.541 172.209,331.041 173.5,333.5C 163.547,338.387 154.381,344.387 146,351.5C 144.743,351.15 144.409,350.483 145,349.5C 152.024,342.803 159.857,337.303 168.5,333C 164.069,330.925 159.735,331.258 155.5,334C 150.914,338.08 146.914,342.58 143.5,347.5C 140.905,339.804 136.905,332.971 131.5,327C 127.782,324.702 123.782,324.035 119.5,325C 114.665,326.914 110.331,329.581 106.5,333C 98.9473,340.097 91.614,347.43 84.5,355C 67.754,367.229 55.254,363.729 47,344.5C 43.4452,351.055 38.2785,355.888 31.5,359C 26.8481,360.193 22.6814,359.36 19,356.5C 18.2506,355.365 18.4173,354.365 19.5,353.5C 28.7315,348.38 37.0649,342.047 44.5,334.5C 46.1013,335.035 46.6013,336.035 46,337.5C 39.0995,344.352 31.5995,350.352 23.5,355.5C 27.6926,356.83 31.6926,356.33 35.5,354C 39.8167,349.373 43.65,344.539 47,339.5C 49.989,344.137 52.989,348.804 56,353.5C 60.8416,358.299 66.6749,359.799 73.5,358C 77.6747,356.416 81.3413,354.082 84.5,351C 89.2174,345.738 94.0507,340.571 99,335.5C 104.712,325.939 106.712,315.606 105,304.5C 103.152,298.812 101.318,293.145 99.5,287.5C 87.5086,288.663 75.842,291.163 64.5,295C 55.3842,301.402 51.2175,310.235 52,321.5C 48.3639,329.398 45.1972,329.398 42.5,321.5C 39.0061,323.079 35.6728,324.913 32.5,327C 28.7072,328.052 26.7072,326.552 26.5,322.5C 27.7543,317.484 30.7543,313.984 35.5,312C 40.1511,311.101 44.8178,310.268 49.5,309.5C 53.4856,299.013 60.8189,292.179 71.5,289C 79.7635,287.286 88.0968,286.119 96.5,285.5C 96.5,284.5 96.5,283.5 96.5,282.5C 84.2949,286.154 72.6282,284.987 61.5,279C 52.3409,271.227 51.1742,262.394 58,252.5C 65.1055,245.198 73.6055,240.364 83.5,238C 81.8659,237.506 80.1992,237.34 78.5,237.5C 78.5,236.5 78.5,235.5 78.5,234.5C 90.9285,231.474 102.262,233.64 112.5,241C 124.261,258.771 120.261,271.938 100.5,280.5C 99.6143,281.325 99.281,282.325 99.5,283.5C 109.726,282.036 119.393,278.869 128.5,274C 135.431,267.388 138.765,259.221 138.5,249.5 Z"/></g>
<g><path style="opacity:1" fill="#969696" d="M 136.5,243.5 C 137.5,243.5 138.5,243.5 139.5,243.5C 139.795,245.735 139.461,247.735 138.5,249.5C 138.741,247.114 138.075,245.114 136.5,243.5 Z"/></g>
<g><path style="opacity:1" fill="#f8f8f8" d="M 84.5,237.5 C 99.5656,233.802 110.066,239.135 116,253.5C 117.289,262.42 114.123,269.254 106.5,274C 92.0704,282.96 77.4037,283.627 62.5,276C 54.1048,266.736 54.7715,258.069 64.5,250C 71.25,244.625 78.9166,241.459 87.5,240.5C 87.5,239.5 87.5,238.5 87.5,237.5C 86.5,237.5 85.5,237.5 84.5,237.5 Z"/></g>
<g><path style="opacity:1" fill="#1b1b1b" d="M 107.5,249.5 C 109.225,249.843 109.725,250.843 109,252.5C 101.729,259.869 92.8959,263.203 82.5,262.5C 82.5,261.5 82.5,260.5 82.5,259.5C 92.5171,260.057 100.85,256.723 107.5,249.5 Z"/></g>
<g><path style="opacity:1" fill="#1e1e1e" d="M 87.5,244.5 C 88.5,244.5 89.5,244.5 90.5,244.5C 90.5,246.167 90.5,247.833 90.5,249.5C 89.5,249.5 88.5,249.5 87.5,249.5C 87.5,247.833 87.5,246.167 87.5,244.5 Z"/></g>
<g><path style="opacity:1" fill="#1c1c1c" d="M 96.5,241.5 C 99.8384,241.849 100.838,243.516 99.5,246.5C 97.7377,245.312 96.7377,243.645 96.5,241.5 Z"/></g>
<g><path style="opacity:1" fill="#ededed" d="M 134.5,218.5 C 138.562,218.724 141.395,220.724 143,224.5C 143.667,228.833 143.667,233.167 143,237.5C 141.712,241.853 139.212,242.686 135.5,240C 133.5,238.667 131.833,237 130.5,235C 132.764,234.764 134.931,234.264 137,233.5C 137.289,228.321 136.456,223.321 134.5,218.5 Z"/></g>
<g><path style="opacity:1" fill="#efefef" d="M 579.5,278.5 C 580.497,278.47 581.164,278.97 581.5,280C 580.308,282.055 580.308,284.055 581.5,286C 587.228,286.32 592.895,285.82 598.5,284.5C 598.682,289.489 596.349,292.655 591.5,294C 586.833,294.667 582.167,294.667 577.5,294C 575.033,293.204 573.7,291.537 573.5,289C 574.348,284.8 576.348,281.3 579.5,278.5 Z"/></g>
<g><path style="opacity:1" fill="#525252" d="M 253.5,281.5 C 252.833,287.5 252.167,293.5 251.5,299.5C 251.334,292.159 251.5,284.826 252,277.5C 252.41,278.901 252.91,280.234 253.5,281.5 Z"/></g>
<g><path style="opacity:1" fill="#f2f2f2" d="M 478.5,292.5 C 494.129,297.223 494.462,303.056 479.5,310C 474.16,311.534 469.66,310.367 466,306.5C 465.517,305.552 465.351,304.552 465.5,303.5C 470.412,303.937 475.078,303.104 479.5,301C 480.574,300.261 481.241,299.261 481.5,298C 480.259,296.269 479.259,294.436 478.5,292.5 Z"/></g>
<g><path style="opacity:1" fill="#efefef" d="M 287.5,299.5 C 288.978,299.238 290.311,299.571 291.5,300.5C 289.467,302.452 289.134,304.618 290.5,307C 294.231,309.099 298.231,310.266 302.5,310.5C 301.417,313.978 298.917,315.645 295,315.5C 289.369,314.855 285.035,312.188 282,307.5C 281.333,306.167 281.333,304.833 282,303.5C 283.812,302.023 285.645,300.69 287.5,299.5 Z"/></g>
<g><path style="opacity:1" fill="#f0f0f0" d="M 39.5,313.5 C 42.5788,313.26 45.5788,313.593 48.5,314.5C 50.0852,317.913 49.5852,320.913 47,323.5C 46.8616,320.531 45.3616,318.865 42.5,318.5C 38.3162,319.856 34.4829,321.856 31,324.5C 30.3333,322.833 30.3333,321.167 31,319.5C 33.3218,316.605 36.1552,314.605 39.5,313.5 Z"/></g>
<g><path style="opacity:1" fill="#eaeaea" d="M 223.5,313.5 C 228.213,313.19 231.88,315.023 234.5,319C 227.951,318.381 225.785,321.214 228,327.5C 229.136,330.096 229.969,332.763 230.5,335.5C 225.695,334.868 222.528,332.201 221,327.5C 219.911,322.444 220.744,317.778 223.5,313.5 Z"/></g>
<g><path style="opacity:1" fill="#e6e6e6" d="M 523.5,331.5 C 524.401,342.805 526.068,354.139 528.5,365.5C 528.43,366.772 528.097,367.938 527.5,369C 526,369.5 524.5,370 523,370.5C 522.055,370.095 521.388,369.428 521,368.5C 519.961,356.025 520.794,343.691 523.5,331.5 Z"/></g>
<g><path style="opacity:1" fill="#e5e5e5" d="M 546.5,370.5 C 551.684,369.928 555.684,371.761 558.5,376C 555.183,376.498 551.85,376.665 548.5,376.5C 548.296,374.315 547.63,372.315 546.5,370.5 Z"/></g>
<g><path style="opacity:1" fill="#f6f6f6" d="M 526.5,420.5 C 526.5,420.167 526.5,419.833 526.5,419.5C 537.238,418.075 546.738,420.741 555,427.5C 557.087,430.673 558.921,434.006 560.5,437.5C 559.597,439.62 558.263,439.954 556.5,438.5C 548.874,444.483 540.207,446.817 530.5,445.5C 531.143,448.988 533.143,451.488 536.5,453C 540.595,455.22 544.928,455.887 549.5,455C 551.559,453.815 551.726,452.648 550,451.5C 544.723,453.175 539.89,452.342 535.5,449C 543.726,449.05 551.06,446.55 557.5,441.5C 561.299,447.346 560.299,452.513 554.5,457C 540.022,465.549 525.022,466.549 509.5,460C 497.125,450.99 496.458,441.324 507.5,431C 515.57,425.232 524.57,422.732 534.5,423.5C 534.5,422.5 534.5,421.5 534.5,420.5C 531.833,420.5 529.167,420.5 526.5,420.5 Z"/></g>
<g><path style="opacity:1" fill="#1a1a1a" d="M 591.5,423.5 C 593.973,423.604 594.639,424.604 593.5,426.5C 589.833,428.333 586.167,430.167 582.5,432C 581.365,432.749 580.365,432.583 579.5,431.5C 583.185,428.327 587.185,425.66 591.5,423.5 Z"/></g>
<g><path style="opacity:1" fill="#171717" d="M 447.5,427.5 C 447.5,426.5 447.5,425.5 447.5,424.5C 450.356,425.414 452.856,427.081 455,429.5C 467.046,444.511 466.213,458.678 452.5,472C 446.417,474.474 440.084,475.141 433.5,474C 427.028,471.107 421.028,467.774 415.5,464C 422.922,469.754 427.422,477.254 429,486.5C 429.333,498.833 429.667,511.167 430,523.5C 437.14,531.887 437.307,540.387 430.5,549C 428.086,550.885 425.419,551.552 422.5,551C 421.426,550.261 420.759,549.261 420.5,548C 422.1,543.871 422.433,539.705 421.5,535.5C 415.389,536.786 413.889,534.453 417,528.5C 419.57,526.131 422.404,524.131 425.5,522.5C 426.666,511.181 426.832,499.848 426,488.5C 424.927,479.942 421.094,472.942 414.5,467.5C 411.168,471.614 408.668,476.28 407,481.5C 405,494.833 405,508.167 407,521.5C 410.977,530.793 414.977,540.126 419,549.5C 420.896,558.721 422.063,568.055 422.5,577.5C 430.453,573.892 438.453,573.725 446.5,577C 449.154,580.327 450.154,584.161 449.5,588.5C 437.904,587.101 426.237,586.101 414.5,585.5C 414.709,584.914 415.043,584.414 415.5,584C 425.843,583.485 436.177,583.651 446.5,584.5C 446.617,582.516 445.95,580.85 444.5,579.5C 441.666,578.116 438.666,577.449 435.5,577.5C 429.546,578.151 423.88,579.818 418.5,582.5C 418.499,573.91 418.332,565.244 418,556.5C 413.892,544.948 409.225,533.615 404,522.5C 403,538.166 399.333,553.166 393,567.5C 391.204,570.927 389.037,574.094 386.5,577C 390.013,576.119 393.68,575.619 397.5,575.5C 406.548,575.217 410.214,579.551 408.5,588.5C 397.241,587.075 385.908,586.075 374.5,585.5C 374.709,584.914 375.043,584.414 375.5,584C 385.512,583.453 395.512,583.62 405.5,584.5C 406.035,581.762 405.035,579.928 402.5,579C 395.105,577.809 388.105,578.975 381.5,582.5C 381.167,582 380.833,581.5 380.5,581C 386.933,572.222 392.1,562.722 396,552.5C 397.783,541.437 399.783,530.437 402,519.5C 402.333,507.833 402.667,496.167 403,484.5C 404.331,478.836 406.498,473.503 409.5,468.5C 402.74,471.453 397.906,476.786 395,484.5C 391.538,494.937 389.038,505.604 387.5,516.5C 388.857,518.801 390.69,520.801 393,522.5C 399.011,530.713 397.178,534.047 387.5,532.5C 387.826,536.884 387.492,541.217 386.5,545.5C 381.617,546.977 378.117,545.31 376,540.5C 373.343,530.844 376.01,523.177 384,517.5C 385.774,504.405 389.107,491.738 394,479.5C 398.847,471.648 405.347,465.481 413.5,461C 408.297,455.095 404.797,448.262 403,440.5C 400.66,426.36 406.493,418.36 420.5,416.5C 430.54,417.689 439.54,421.356 447.5,427.5 Z"/></g>
<g><path style="opacity:1" fill="#7f7f7f" d="M 447.5,427.5 C 449.749,428.08 451.415,429.413 452.5,431.5C 451.596,432.209 451.263,433.209 451.5,434.5C 450.209,434.737 449.209,434.404 448.5,433.5C 449.376,433.631 450.043,433.298 450.5,432.5C 449.446,430.799 448.446,429.132 447.5,427.5 Z"/></g>
<g><path style="opacity:1" fill="#f6f6f6" d="M 448.5,433.5 C 449.209,434.404 450.209,434.737 451.5,434.5C 451.263,433.209 451.596,432.209 452.5,431.5C 463.691,444.908 463.025,457.741 450.5,470C 439.693,473.402 430.027,471.402 421.5,464C 412.103,456.698 406.769,447.198 405.5,435.5C 405.354,425.313 410.354,419.98 420.5,419.5C 431.736,420.566 441.069,425.233 448.5,433.5 Z"/></g>
<g><path style="opacity:1" fill="#202020" d="M 437.5,437.5 C 439.861,437.674 442.194,438.007 444.5,438.5C 444.5,439.5 444.5,440.5 444.5,441.5C 440.998,441.924 438.665,440.59 437.5,437.5 Z"/></g>
<g><path style="opacity:1" fill="#171717" d="M 599.5,435.5 C 600.833,435.5 602.167,435.5 603.5,435.5C 603.5,436.5 603.5,437.5 603.5,438.5C 597.489,439.001 591.489,439.668 585.5,440.5C 584.167,440.167 582.833,439.833 581.5,439.5C 582.025,438.808 582.692,438.308 583.5,438C 588.988,437.226 594.321,436.393 599.5,435.5 Z"/></g>
<g><path style="opacity:1" fill="#191919" d="M 580.5,445.5 C 587.574,447.636 594.574,449.969 601.5,452.5C 601.5,453.5 601.5,454.5 601.5,455.5C 594.598,453.698 587.931,451.198 581.5,448C 580.748,447.329 580.414,446.496 580.5,445.5 Z"/></g>
<g><path style="opacity:1" fill="#282828" d="M 448.5,445.5 C 451.835,446.461 453.501,448.794 453.5,452.5C 450.165,451.539 448.499,449.206 448.5,445.5 Z"/></g>
<g><path style="opacity:1" fill="#171717" d="M 423.5,438.5 C 437.907,442.574 446.907,451.908 450.5,466.5C 449.5,466.5 448.5,466.5 447.5,466.5C 444.212,453.547 436.212,445.214 423.5,441.5C 423.5,440.5 423.5,439.5 423.5,438.5 Z"/></g>
<g><path style="opacity:1" fill="#191919" d="M 176.5,503.5 C 177.5,503.5 178.5,503.5 179.5,503.5C 179.819,498.637 179.486,493.97 178.5,489.5C 178.32,476.414 171.987,468.414 159.5,465.5C 156.404,481.964 156.904,498.297 161,514.5C 161.333,521.5 161.667,528.5 162,535.5C 164.776,550.213 167.61,564.88 170.5,579.5C 166.156,578.442 161.823,577.276 157.5,576C 152.442,574.99 147.609,575.49 143,577.5C 141.991,579.025 141.491,580.692 141.5,582.5C 152.093,580.276 162.76,579.943 173.5,581.5C 173.5,582.5 173.5,583.5 173.5,584.5C 162.121,583.11 150.787,583.444 139.5,585.5C 139.5,584.5 139.5,583.5 139.5,582.5C 135.158,582.739 130.824,583.073 126.5,583.5C 126.769,574.665 131.436,570.331 140.5,570.5C 145.481,571.165 150.481,571.498 155.5,571.5C 152.668,555.137 152.835,538.804 156,522.5C 156.695,520.278 157.528,518.111 158.5,516C 156.146,509.378 154.813,502.545 154.5,495.5C 154.433,487.441 154.6,479.441 155,471.5C 152.946,474.047 151.113,476.714 149.5,479.5C 140.765,488.251 130.099,492.418 117.5,492C 111.63,497.392 104.963,498.725 97.5,496C 96.2567,494.846 95.2567,493.512 94.5,492C 79.6948,492.313 68.6948,486.146 61.5,473.5C 61.2172,472.711 60.7172,472.044 60,471.5C 59.2042,474.039 59.3709,476.372 60.5,478.5C 61.3534,491.257 60.02,503.757 56.5,516C 59.3362,521.511 61.1696,527.344 62,533.5C 62.6879,545.553 62.1879,557.553 60.5,569.5C 59.596,570.209 59.2627,571.209 59.5,572.5C 62.0593,572.802 64.3926,572.468 66.5,571.5C 74.9697,569.074 82.1363,571.074 88,577.5C 88.4955,579.473 88.6621,581.473 88.5,583.5C 84.1311,583.533 79.7978,583.2 75.5,582.5C 75.5,583.5 75.5,584.5 75.5,585.5C 68.3257,584.975 61.159,584.309 54,583.5C 49.8245,583.808 45.6578,584.142 41.5,584.5C 41.5,583.5 41.5,582.5 41.5,581.5C 51.8788,580.192 62.2121,580.525 72.5,582.5C 73.0262,579.192 71.6928,577.026 68.5,576C 64.1667,575.333 59.8333,575.333 55.5,576C 51.5621,577.474 47.5621,578.641 43.5,579.5C 49.0468,566.018 52.8801,552.018 55,537.5C 55.9101,530.061 55.4101,522.728 53.5,515.5C 54.975,511.602 56.1417,507.602 57,503.5C 57.6667,493.5 57.6667,483.5 57,473.5C 56.8485,470.881 56.0152,468.547 54.5,466.5C 40.7915,477.917 33.4582,492.584 32.5,510.5C 37.7313,510.867 41.8979,513.2 45,517.5C 46.2799,522.921 44.1132,524.921 38.5,523.5C 39.512,527.866 40.3453,532.2 41,536.5C 38.712,539.778 35.8787,540.278 32.5,538C 25.859,532.333 23.6923,525.167 26,516.5C 26.7485,514.668 27.7485,513.001 29,511.5C 30.1108,492.617 37.6108,476.95 51.5,464.5C 39.9958,464.166 30.8291,459.499 24,450.5C 20.8198,444.442 20.8198,438.442 24,432.5C 33.2874,421.608 45.1207,416.274 59.5,416.5C 59.5,417.5 59.5,418.5 59.5,419.5C 46.5721,419.382 35.7388,424.049 27,433.5C 22.6472,447.605 27.8138,456.439 42.5,460C 56.2534,462.586 68.92,460.086 80.5,452.5C 89.5106,440.467 88.1773,429.634 76.5,420C 68.3199,415.943 59.6533,414.443 50.5,415.5C 50.5,414.5 50.5,413.5 50.5,412.5C 61.3552,411.138 71.3552,413.305 80.5,419C 90.6796,429.004 92.1796,440.17 85,452.5C 77.7354,458.879 69.2354,462.712 59.5,464C 64.2814,475.783 72.6148,483.783 84.5,488C 87.5,488.667 90.5,488.667 93.5,488C 95.5995,483.28 99.2662,481.114 104.5,481.5C 108.327,481.608 111.993,482.442 115.5,484C 117.439,484.908 118.439,486.408 118.5,488.5C 135.99,489.422 147.99,481.755 154.5,465.5C 144.876,465.765 135.876,463.598 127.5,459C 115.354,447.766 115.687,436.766 128.5,426C 136.218,420.311 144.885,417.144 154.5,416.5C 154.5,417.5 154.5,418.5 154.5,419.5C 140.156,420.742 129.323,427.409 122,439.5C 121.752,449.813 126.585,456.646 136.5,460C 149.977,462.903 162.644,460.903 174.5,454C 186.449,442.698 186.449,431.365 174.5,420C 165.944,415.568 156.944,414.401 147.5,416.5C 144.761,414.769 145.094,413.603 148.5,413C 161.748,410.264 172.915,413.764 182,423.5C 188.892,434.982 187.726,445.482 178.5,455C 173.404,458.215 168.071,460.881 162.5,463C 174.324,466.766 180.824,474.932 182,487.5C 182.333,493.167 182.667,498.833 183,504.5C 187.753,512.575 187.586,520.575 182.5,528.5C 180.107,530.363 177.44,531.696 174.5,532.5C 172.971,532.471 171.804,531.804 171,530.5C 170.775,526.161 171.608,521.995 173.5,518C 173.167,517.167 172.833,516.333 172.5,515.5C 169.19,517.259 166.856,516.426 165.5,513C 167.562,507.97 171.229,504.803 176.5,503.5 Z"/></g>
<g><path style="opacity:1" fill="#1b1b1b" d="M 157.5,442.5 C 159.225,442.843 159.725,443.843 159,445.5C 154.838,450.761 149.338,453.095 142.5,452.5C 135.658,452.976 131.325,449.976 129.5,443.5C 130.552,443.351 131.552,443.517 132.5,444C 134.779,448.473 138.446,450.306 143.5,449.5C 149.544,449.812 154.21,447.478 157.5,442.5 Z"/></g>
<g><path style="opacity:1" fill="#181818" d="M 78.5,431.5 C 79.5862,431.62 80.2528,432.287 80.5,433.5C 79.8129,438.352 77.1462,441.519 72.5,443C 67.5715,444.418 62.5715,444.751 57.5,444C 54.9242,443.218 52.9242,441.718 51.5,439.5C 52,439.167 52.5,438.833 53,438.5C 61.1805,443.059 68.8471,442.393 76,436.5C 76.8466,434.807 77.6799,433.14 78.5,431.5 Z"/></g>
<g><path style="opacity:1" fill="#2c2c2c" d="M 136.5,431.5 C 137.995,431.415 138.995,432.081 139.5,433.5C 138.923,435.55 137.59,436.55 135.5,436.5C 135.366,434.708 135.699,433.042 136.5,431.5 Z"/></g>
<g><path style="opacity:1" fill="#222222" d="M 146.5,430.5 C 147.5,430.5 148.5,430.5 149.5,430.5C 149.421,431.93 149.754,433.264 150.5,434.5C 147.52,435.353 146.187,434.019 146.5,430.5 Z"/></g>
<g><path style="opacity:1" fill="#1f1f1f" d="M 58.5,424.5 C 59.5,424.5 60.5,424.5 61.5,424.5C 61.8841,426.665 61.2174,428.332 59.5,429.5C 58.5481,427.955 58.2148,426.288 58.5,424.5 Z"/></g>
<g><path style="opacity:1" fill="#171717" d="M 68.5,422.5 C 70.5901,422.45 71.9234,423.45 72.5,425.5C 69.9364,426.564 68.6031,425.564 68.5,422.5 Z"/></g>
<g><path style="opacity:1" fill="#161616" d="M 526.5,420.5 C 529.167,420.5 531.833,420.5 534.5,420.5C 534.5,421.5 534.5,422.5 534.5,423.5C 524.57,422.732 515.57,425.232 507.5,431C 496.458,441.324 497.125,450.99 509.5,460C 525.022,466.549 540.022,465.549 554.5,457C 560.299,452.513 561.299,447.346 557.5,441.5C 551.06,446.55 543.726,449.05 535.5,449C 539.89,452.342 544.723,453.175 550,451.5C 551.726,452.648 551.559,453.815 549.5,455C 544.928,455.887 540.595,455.22 536.5,453C 533.143,451.488 531.143,448.988 530.5,445.5C 540.207,446.817 548.874,444.483 556.5,438.5C 558.263,439.954 559.597,439.62 560.5,437.5C 558.921,434.006 557.087,430.673 555,427.5C 546.738,420.741 537.238,418.075 526.5,419.5C 526.5,418.5 526.5,417.5 526.5,416.5C 539.275,414.743 550.108,418.41 559,427.5C 560.077,422.885 562.91,421.385 567.5,423C 575.864,427.725 579.03,434.892 577,444.5C 576.365,445.966 575.531,447.3 574.5,448.5C 580.524,463.271 575.524,471.771 559.5,474C 551.805,474.691 544.139,474.525 536.5,473.5C 539.138,487.814 539.138,502.147 536.5,516.5C 540.966,534.685 541.633,553.018 538.5,571.5C 539.93,571.421 541.264,571.754 542.5,572.5C 550.977,568.863 558.477,570.196 565,576.5C 565.497,578.81 565.663,581.143 565.5,583.5C 548.581,583.799 531.581,583.799 514.5,583.5C 514.5,582.5 514.5,581.5 514.5,580.5C 524.565,579.004 534.565,579.337 544.5,581.5C 544.822,579.278 544.155,577.444 542.5,576C 540.256,575.094 537.923,574.594 535.5,574.5C 529.385,575.456 523.385,576.789 517.5,578.5C 520.028,570.753 522.861,563.087 526,555.5C 531.193,535.99 534.36,516.157 535.5,496C 535.792,489.647 534.959,483.481 533,477.5C 529.7,492.759 523.7,506.759 515,519.5C 515.869,527.229 513.703,534.062 508.5,540C 504.445,542.34 500.111,543.007 495.5,542C 494.196,541.196 493.529,540.029 493.5,538.5C 495.942,534.883 498.609,531.383 501.5,528C 494.575,523.658 495.242,520.325 503.5,518C 506.54,517.68 509.54,517.68 512.5,518C 522.971,502.753 528.971,485.92 530.5,467.5C 518.403,468.303 508.237,464.303 500,455.5C 494.462,445.995 495.628,437.495 503.5,430C 510.297,424.788 517.964,421.621 526.5,420.5 Z"/></g>
<g><path style="opacity:1" fill="#f2f2f2" d="M 563.5,448.5 C 566.482,448.963 569.482,449.296 572.5,449.5C 577.031,461.929 572.698,469.096 559.5,471C 551.445,471.822 543.445,471.488 535.5,470C 534.663,468.989 534.33,467.822 534.5,466.5C 545.042,466.144 553.875,462.144 561,454.5C 561.938,452.512 562.772,450.512 563.5,448.5 Z"/></g>
<g><path style="opacity:1" fill="#eaeaea" d="M 562.5,425.5 C 567.382,425.175 570.882,427.175 573,431.5C 575.109,436.441 574.942,441.275 572.5,446C 567.885,447.189 564.218,445.856 561.5,442C 563.167,441.667 564.833,441.333 566.5,441C 567.081,440.107 567.415,439.107 567.5,438C 565.966,433.768 564.3,429.601 562.5,425.5 Z"/></g>
<g><path style="opacity:1" fill="#181818" d="M 546.5,429.5 C 549.423,430.163 550.09,431.83 548.5,434.5C 546.783,433.332 546.116,431.665 546.5,429.5 Z"/></g>
<g><path style="opacity:1" fill="#303030" d="M 536.5,431.5 C 538.484,431.484 539.484,432.484 539.5,434.5C 539.547,436 538.881,437 537.5,437.5C 536.534,435.604 536.201,433.604 536.5,431.5 Z"/></g>
<g><path style="opacity:1" fill="#919191" d="M 61.5,473.5 C 60.5489,474.919 60.2155,476.585 60.5,478.5C 59.3709,476.372 59.2042,474.039 60,471.5C 60.7172,472.044 61.2172,472.711 61.5,473.5 Z"/></g>
<g><path style="opacity:1" fill="#c7c7c7" d="M 154.5,495.5 C 153.673,490.015 153.173,484.348 153,478.5C 151.989,479.337 150.822,479.67 149.5,479.5C 151.113,476.714 152.946,474.047 155,471.5C 154.6,479.441 154.433,487.441 154.5,495.5 Z"/></g>
<g><path style="opacity:1" fill="#f1f1f1" d="M 100.5,484.5 C 105.695,483.944 110.528,484.944 115,487.5C 115.667,488.5 115.667,489.5 115,490.5C 110.395,493.942 105.229,495.109 99.5,494C 96.6361,490.376 96.9694,487.209 100.5,484.5 Z"/></g>
<g><path style="opacity:1" fill="#171717" d="M 284.5,543.5 C 284.5,542.5 284.5,541.5 284.5,540.5C 282.167,540.5 279.833,540.5 277.5,540.5C 275.801,540.38 274.135,540.046 272.5,539.5C 271.353,539.818 270.519,540.484 270,541.5C 266.28,553.602 263.78,565.936 262.5,578.5C 261.739,579.391 260.739,580.058 259.5,580.5C 252.775,577.567 245.775,576.4 238.5,577C 236.024,578.309 234.024,580.142 232.5,582.5C 242.452,582.225 252.452,582.558 262.5,583.5C 251.541,585.372 240.208,586.372 228.5,586.5C 228.765,579.399 232.431,575.232 239.5,574C 242.833,573.333 246.167,573.333 249.5,574C 252.777,575.143 256.11,575.977 259.5,576.5C 260.988,563.904 263.654,551.571 267.5,539.5C 267.182,538.353 266.516,537.519 265.5,537C 253.469,534.103 242.302,529.27 232,522.5C 229.143,517.096 226.976,511.429 225.5,505.5C 221.693,504.191 219.526,501.524 219,497.5C 218.129,490.698 218.629,484.031 220.5,477.5C 219.343,471.157 219.343,464.824 220.5,458.5C 227.456,465.293 235.123,471.126 243.5,476C 253.387,477.703 262.554,475.869 271,470.5C 271.483,469.552 271.649,468.552 271.5,467.5C 258.247,467.374 247.747,462.04 240,451.5C 236.614,442.637 238.447,435.137 245.5,429C 255.173,422.695 265.84,419.861 277.5,420.5C 277.5,421.5 277.5,422.5 277.5,423.5C 264.637,422.288 253.471,425.955 244,434.5C 238.839,444.92 241.339,453.086 251.5,459C 266.355,466.428 281.021,466.095 295.5,458C 303.049,450.687 304.549,442.187 300,432.5C 292.347,422.531 282.18,418.197 269.5,419.5C 269.5,418.5 269.5,417.5 269.5,416.5C 286.261,414.789 298.094,421.456 305,436.5C 307.946,449.775 303.113,458.942 290.5,464C 285.274,465.704 279.941,466.87 274.5,467.5C 274.238,468.978 274.571,470.311 275.5,471.5C 282.606,474.87 289.939,475.37 297.5,473C 309.376,463.946 320.376,454.113 330.5,443.5C 330.358,451.208 330.858,458.875 332,466.5C 339.146,473.618 340.312,481.618 335.5,490.5C 333.955,491.452 332.288,491.785 330.5,491.5C 330.29,502.019 327.457,511.685 322,520.5C 318.434,523.699 314.6,526.533 310.5,529C 302.349,532.759 294.349,536.592 286.5,540.5C 289.659,552.299 291.659,564.299 292.5,576.5C 300.424,572.724 308.424,572.557 316.5,576C 320.192,578.55 321.858,582.05 321.5,586.5C 314.838,585.835 308.172,585.169 301.5,584.5C 296.82,584.751 292.154,585.084 287.5,585.5C 287.5,584.5 287.5,583.5 287.5,582.5C 291.309,582.013 295.142,581.679 299,581.5C 305.542,582.049 312.042,582.549 318.5,583C 315.822,578.493 311.822,576.326 306.5,576.5C 300.271,576.945 294.271,578.278 288.5,580.5C 288.628,567.99 287.295,555.656 284.5,543.5 Z"/></g>
<g><path style="opacity:1" fill="#eaeaea" d="M 222.5,482.5 C 225.552,483.88 227.718,486.214 229,489.5C 231.31,493.177 231.81,497.011 230.5,501C 226.537,502.236 223.703,501.07 222,497.5C 221.222,492.416 221.389,487.416 222.5,482.5 Z"/></g>
<g><path style="opacity:1" fill="#ebebeb" d="M 271.5,473.5 C 272.973,476.017 273.64,478.85 273.5,482C 273.167,483.833 272.833,485.667 272.5,487.5C 265.185,485.895 258.185,483.395 251.5,480C 258.621,478.903 265.288,476.737 271.5,473.5 Z"/></g>
<g><path style="opacity:1" fill="#f1f1f1" d="M 275.5,476.5 C 275.735,475.903 276.235,475.57 277,475.5C 281.368,476.986 285.868,477.819 290.5,478C 286.453,482.237 281.786,485.404 276.5,487.5C 276.815,483.629 276.482,479.962 275.5,476.5 Z"/></g>
<g><path style="opacity:1" fill="#f2f2f2" d="M 330.5,469.5 C 334.033,472.237 335.7,475.904 335.5,480.5C 336.291,487.556 333.457,489.889 327,487.5C 325.748,480.997 326.914,474.997 330.5,469.5 Z"/></g>
<g><path style="opacity:1" fill="#fafafa" d="M 222.5,464.5 C 235.286,475.231 249.619,483.397 265.5,489C 269.086,490.108 272.753,490.608 276.5,490.5C 277.96,506.125 278.627,521.791 278.5,537.5C 263.27,534.535 248.936,529.202 235.5,521.5C 231.99,515.97 229.656,509.97 228.5,503.5C 230.722,503.822 232.556,503.155 234,501.5C 234.415,492.659 231.248,485.326 224.5,479.5C 223.259,474.575 222.593,469.575 222.5,464.5 Z"/></g>
<g><path style="opacity:1" fill="#fafafa" d="M 326.5,449.5 C 327.818,452.258 328.485,455.424 328.5,459C 329.144,464.349 327.977,469.183 325,473.5C 322.336,481.081 323.17,488.081 327.5,494.5C 326.631,501.31 325.131,507.976 323,514.5C 311.555,525.643 298.055,533.31 282.5,537.5C 281.103,521.521 280.603,505.521 281,489.5C 292.454,481.047 303.621,472.214 314.5,463C 319.102,458.906 323.102,454.406 326.5,449.5 Z"/></g>
<g><path style="opacity:1" fill="#181818" d="M 282.5,448.5 C 284.942,448.354 285.609,449.187 284.5,451C 275.767,455.946 266.767,456.613 257.5,453C 256.269,451.817 256.269,450.651 257.5,449.5C 266.062,453.568 274.396,453.234 282.5,448.5 Z"/></g>
<g><path style="opacity:1" fill="#1d1d1d" d="M 265.5,437.5 C 266.5,437.5 267.5,437.5 268.5,437.5C 268.884,439.665 268.217,441.332 266.5,442.5C 265.548,440.955 265.215,439.288 265.5,437.5 Z"/></g>
<g><path style="opacity:1" fill="#2b2b2b" d="M 275.5,437.5 C 278.91,437.384 280.244,439.05 279.5,442.5C 278.5,442.5 277.5,442.5 276.5,442.5C 276.371,440.784 276.038,439.117 275.5,437.5 Z"/></g>
<g><path style="opacity:1" fill="#b2b2b2" d="M 178.5,489.5 C 179.486,493.97 179.819,498.637 179.5,503.5C 178.5,503.5 177.5,503.5 176.5,503.5C 178.348,499.146 179.015,494.48 178.5,489.5 Z"/></g>
<g><path style="opacity:1" fill="#ececec" d="M 175.5,506.5 C 178.044,506.104 180.211,506.771 182,508.5C 184.858,515.81 183.691,522.31 178.5,528C 176.975,529.009 175.308,529.509 173.5,529.5C 175.137,524.621 175.971,519.621 176,514.5C 175.481,513.484 174.647,512.818 173.5,512.5C 172.014,513.309 170.681,513.309 169.5,512.5C 171.215,510.118 173.215,508.118 175.5,506.5 Z"/></g>
<g><path style="opacity:1" fill="#ededed" d="M 30.5,513.5 C 35.583,513.375 39.583,515.375 42.5,519.5C 40.3984,519.479 38.2317,519.813 36,520.5C 35.3333,522.833 35.3333,525.167 36,527.5C 37.1449,530.432 37.9782,533.432 38.5,536.5C 34.5674,536.589 31.7341,534.922 30,531.5C 27.9044,525.405 28.0711,519.405 30.5,513.5 Z"/></g>
<g><path style="opacity:1" fill="#f2f2f2" d="M 383.5,521.5 C 388.242,522.227 391.575,524.893 393.5,529.5C 391.22,528.689 388.72,528.689 386,529.5C 384.947,534.091 384.114,538.758 383.5,543.5C 379.465,541.62 377.798,538.453 378.5,534C 378.379,529.082 380.045,524.915 383.5,521.5 Z"/></g>
<g><path style="opacity:1" fill="#e9e9e9" d="M 502.5,520.5 C 506.007,519.994 509.174,520.66 512,522.5C 512.379,529.247 509.879,534.747 504.5,539C 501.773,539.818 499.106,539.652 496.5,538.5C 498.483,536.016 500.65,533.683 503,531.5C 504.202,529.323 504.702,526.989 504.5,524.5C 499.256,524.335 498.59,523.001 502.5,520.5 Z"/></g>
<g><path style="opacity:1" fill="#ececec" d="M 425.5,525.5 C 427.39,525.297 428.89,525.963 430,527.5C 433.333,533.5 433.333,539.5 430,545.5C 428.556,547.155 426.722,547.822 424.5,547.5C 425.167,542.84 425.333,538.174 425,533.5C 422.768,532.813 420.602,532.479 418.5,532.5C 420.521,529.812 422.854,527.479 425.5,525.5 Z"/></g>
<g><path style="opacity:1" fill="#8d8d8d" d="M 536.5,533.5 C 535.833,533.167 535.167,532.833 534.5,532.5C 535.246,527.521 535.912,527.854 536.5,533.5 Z"/></g>
<g><path style="opacity:1" fill="#ebebeb" d="M 534.5,532.5 C 535.167,532.833 535.833,533.167 536.5,533.5C 537.922,546.208 537.589,558.874 535.5,571.5C 531.7,571.411 528.034,572.078 524.5,573.5C 523.833,573.167 523.167,572.833 522.5,572.5C 528.315,559.72 532.315,546.386 534.5,532.5 Z"/></g>
<g><path style="opacity:1" fill="#eaeaea" d="M 157.5,529.5 C 160.299,544.478 163.632,559.478 167.5,574.5C 164.636,574.842 161.802,574.176 159,572.5C 157.631,558.207 157.131,543.874 157.5,529.5 Z"/></g>
<g><path style="opacity:1" fill="#6f6f6f" d="M 277.5,540.5 C 279.833,540.5 282.167,540.5 284.5,540.5C 284.5,541.5 284.5,542.5 284.5,543.5C 282.307,542.105 279.974,541.105 277.5,540.5 Z"/></g>
<g><path style="opacity:1" fill="#e7e7e7" d="M 58.5,535.5 C 60.0975,547.828 59.2641,560.161 56,572.5C 53.5463,573.198 51.2129,574.198 49,575.5C 53.0934,562.456 56.2601,549.123 58.5,535.5 Z"/></g>
<g><path style="opacity:1" fill="#828282" d="M 60.5,569.5 C 61.9179,571.308 63.9179,571.975 66.5,571.5C 64.3926,572.468 62.0593,572.802 59.5,572.5C 59.2627,571.209 59.596,570.209 60.5,569.5 Z"/></g>
<g><path style="opacity:1" fill="#e4e4e4" d="M 137.5,573.5 C 139.288,573.215 140.955,573.548 142.5,574.5C 140.244,575.421 139.244,577.088 139.5,579.5C 126.941,581.298 126.274,579.298 137.5,573.5 Z"/></g>
<g><path style="opacity:1" fill="#e6e6e6" d="M 549.5,573.5 C 554.447,572.628 558.613,573.961 562,577.5C 562.483,578.448 562.649,579.448 562.5,580.5C 557.518,579.947 552.518,579.613 547.5,579.5C 547.703,577.61 547.037,576.11 545.5,575C 547.058,574.79 548.391,574.29 549.5,573.5 Z"/></g>
<g><path style="opacity:1" fill="#dfdfdf" d="M 262.5,578.5 C 262.5,580.167 262.5,581.833 262.5,583.5C 252.452,582.558 242.452,582.225 232.5,582.5C 234.024,580.142 236.024,578.309 238.5,577C 245.775,576.4 252.775,577.567 259.5,580.5C 260.739,580.058 261.739,579.391 262.5,578.5 Z"/></g>
<g><path style="opacity:1" fill="#e8e8e8" d="M 71.5,574.5 C 77.1495,572.941 81.8162,574.608 85.5,579.5C 82.1539,580.282 78.8206,579.949 75.5,578.5C 74.8111,576.478 73.4778,575.144 71.5,574.5 Z"/></g>
</svg>
