<?xml version="1.0" encoding="UTF-8"?>
<!DOCTYPE svg PUBLIC "-//W3C//DTD SVG 1.1//EN" "http://www.w3.org/Graphics/SVG/1.1/DTD/svg11.dtd">
<svg xmlns="http://www.w3.org/2000/svg" version="1.1" width="223px" height="226px" style="shape-rendering:geometricPrecision; text-rendering:geometricPrecision; image-rendering:optimizeQuality; fill-rule:evenodd; clip-rule:evenodd" xmlns:xlink="http://www.w3.org/1999/xlink">
<g><path style="opacity:1" fill="#fdfdfd" d="M -0.5,-0.5 C 73.8333,-0.5 148.167,-0.5 222.5,-0.5C 222.5,74.8333 222.5,150.167 222.5,225.5C 148.167,225.5 73.8333,225.5 -0.5,225.5C -0.5,150.167 -0.5,74.8333 -0.5,-0.5 Z"/></g>
<g><path style="opacity:1" fill="#141416" d="M 52.5,16.5 C 55.091,17.2543 56.9243,18.921 58,21.5C 58.3333,19.8333 58.6667,18.1667 59,16.5C 64.75,16.2452 67.75,19.2452 68,25.5C 87.6666,33.1645 96.3333,47.4979 94,68.5C 92.9309,76.7125 90.0976,84.2125 85.5,91C 91.3899,88.7349 97.3899,86.4016 103.5,84C 123.177,79.6649 142.843,75.3315 162.5,71C 167.833,68.3333 173.167,65.6667 178.5,63C 182.382,58.7861 185.882,54.2861 189,49.5C 191.544,46.9199 194.044,46.9199 196.5,49.5C 200.432,56.1381 200.432,62.8047 196.5,69.5C 197.074,71.0589 197.74,72.5589 198.5,74C 199.996,74.5074 201.163,74.0074 202,72.5C 204.448,68.3851 207.281,64.5518 210.5,61C 211.5,60.3333 212.5,60.3333 213.5,61C 215.923,63.5125 217.256,66.5125 217.5,70C 216.59,78.0646 214.09,85.5646 210,92.5C 210.548,101.743 206.714,108.41 198.5,112.5C 197.092,120.661 192.759,126.661 185.5,130.5C 184.452,137.88 180.452,142.88 173.5,145.5C 173.833,145.833 174.167,146.167 174.5,146.5C 185.049,142.221 195.382,142.721 205.5,148C 208.802,149.467 210.802,151.967 211.5,155.5C 211.182,156.647 210.516,157.481 209.5,158C 211.673,161.86 212.673,166.027 212.5,170.5C 210.801,170.34 209.134,170.506 207.5,171C 208.954,174.938 208.788,178.771 207,182.5C 201.075,179.239 194.908,178.739 188.5,181C 179.554,184.806 170.888,189.139 162.5,194C 149.406,198.809 136.073,202.809 122.5,206C 109.044,207.742 96.0442,206.075 83.5,201C 64.2942,200.548 45.6275,197.215 27.5,191C 24.1667,189.333 20.8333,187.667 17.5,186C 11.9035,178.976 7.73684,171.143 5,162.5C 3.82935,154.207 4.82935,146.207 8,138.5C 12.9075,127.922 19.7409,118.755 28.5,111C 43.4781,102.026 56.6447,90.8595 68,77.5C 70.7323,73.7594 73.0657,69.7594 75,65.5C 77.5291,54.0354 73.0291,48.8687 61.5,50C 60.1955,50.804 59.5288,51.9707 59.5,53.5C 63.5884,62.638 61.5884,70.138 53.5,76C 50.3388,77.4131 47.3388,79.0797 44.5,81C 39.1667,86.6667 33.8333,92.3333 28.5,98C 21.4327,101.27 18.9327,99.103 21,91.5C 23,88.8333 25,86.1667 27,83.5C 28.1798,79.7831 29.5131,76.1165 31,72.5C 31.0017,60.8012 33.6683,49.8012 39,39.5C 42.7565,36.4142 45.7565,32.7475 48,28.5C 49.2272,24.4087 48.3939,20.9087 45.5,18C 48.6643,18.1212 51.1643,19.6212 53,22.5C 53.4901,20.4546 53.3235,18.4546 52.5,16.5 Z"/></g>
<g><path style="opacity:1" fill="#f7f7f7" d="M 192.5,50.5 C 193.822,50.33 194.989,50.6634 196,51.5C 197.162,57.5566 196.162,63.2233 193,68.5C 190.518,71.9493 187.685,75.116 184.5,78C 185.5,78.6667 186.5,78.6667 187.5,78C 189.388,75.8104 191.555,73.9771 194,72.5C 194.959,76.4214 193.792,79.5881 190.5,82C 178.157,86.5857 165.49,89.9191 152.5,92C 131.852,93.4535 111.186,93.7868 90.5,93C 97.8417,89.1622 105.508,86.1622 113.5,84C 125.784,81.4098 138.118,79.0765 150.5,77C 161.192,75.104 171.192,71.4374 180.5,66C 185.113,61.2549 189.113,56.0882 192.5,50.5 Z"/></g>
<g><path style="opacity:1" fill="#fcfcfc" d="M 58.5,26.5 C 83.0724,30.2565 93.5724,44.5899 90,69.5C 86.0606,85.7712 77.0606,98.4379 63,107.5C 62.4092,108.483 62.7425,109.15 64,109.5C 70.2034,105.94 76.37,102.44 82.5,99C 84.7885,98.1779 87.1218,97.5112 89.5,97C 109.009,96.7498 128.509,96.2498 148,95.5C 166.169,95.085 183.002,90.2517 198.5,81C 203.674,76.8137 207.508,71.6471 210,65.5C 211.049,64.4829 212.216,64.3162 213.5,65C 214.616,73.6914 212.783,81.858 208,89.5C 203.101,93.699 197.934,97.5324 192.5,101C 197.27,100.543 201.77,99.0428 206,96.5C 205.213,101.556 202.713,105.723 198.5,109C 195.003,111.583 191.336,113.916 187.5,116C 189.856,116.155 192.189,116.155 194.5,116C 190.387,123.446 184.387,128.779 176.5,132C 178.256,132.202 179.922,132.702 181.5,133.5C 177.43,139.723 171.764,143.889 164.5,146C 160.943,147.408 157.276,148.408 153.5,149C 158.305,149.781 162.972,149.281 167.5,147.5C 164.908,152.557 160.574,156.391 154.5,159C 153.304,159.654 153.304,160.154 154.5,160.5C 160.53,157.967 166.196,154.801 171.5,151C 181.193,146.582 191.193,145.582 201.5,148C 204.362,148.93 206.695,150.597 208.5,153C 207.552,153.483 206.552,153.649 205.5,153.5C 207.676,157.533 209.01,161.867 209.5,166.5C 207.833,166.5 206.167,166.5 204.5,166.5C 204.717,169.435 205.383,172.269 206.5,175C 206.094,178.702 204.427,179.368 201.5,177C 198.167,176.333 194.833,176.333 191.5,177C 178.167,182.667 164.833,188.333 151.5,194C 135.126,200.798 118.126,203.798 100.5,203C 85.1443,198.564 69.4776,195.897 53.5,195C 41.3759,194.062 30.3759,190.229 20.5,183.5C 5.14546,165.002 4.64546,146.002 19,126.5C 22.0498,122.905 25.2164,119.405 28.5,116C 40.0901,107.288 51.5901,98.4544 63,89.5C 69.8217,82.5324 75.155,74.5324 79,65.5C 80.2333,58.127 77.7333,52.2937 71.5,48C 57.4764,43.1901 53.1431,47.6901 58.5,61.5C 58.7052,64.2285 57.8718,66.5618 56,68.5C 51.4388,72.8662 46.2721,76.3662 40.5,79C 35.9704,85.0421 30.9704,90.7088 25.5,96C 24.6683,96.6877 24.0016,96.521 23.5,95.5C 27.6679,89.5082 31.1679,83.1748 34,76.5C 35.1079,69.8847 35.7746,63.218 36,56.5C 38.1273,47.5849 42.794,40.2516 50,34.5C 50.9005,29.6544 53.7338,26.9877 58.5,26.5 Z"/></g>
</svg>
